<?xml version="1.0" standalone="no"?>
<!DOCTYPE svg PUBLIC "-//W3C//DTD SVG 20010904//EN"
 "http://www.w3.org/TR/2001/REC-SVG-20010904/DTD/svg10.dtd">
<svg version="1.0" xmlns="http://www.w3.org/2000/svg"
 width="700.000000pt" height="700.000000pt" viewBox="0 0 700.000000 700.000000"
 preserveAspectRatio="xMidYMid meet">
<metadata>
Created by potrace 1.14, written by Peter Selinger 2001-2017
</metadata>
<g transform="translate(0.000000,700.000000) scale(0.100000,-0.100000)"
fill="#000000" stroke="none">
<path d="M0 4492 l0 -2509 25 -13 c14 -7 25 -17 25 -22 0 -4 14 -8 30 -8 20 0
30 -5 30 -15 0 -9 6 -18 14 -21 8 -3 20 -19 26 -35 13 -31 24 -36 36 -17 4 6
0 16 -9 23 -10 7 -17 26 -17 43 0 30 1 31 38 25 36 -6 61 -26 62 -50 0 -7 -4
-13 -10 -13 -5 0 -10 7 -10 15 0 8 -9 15 -20 15 -28 0 -25 -19 6 -30 40 -16
86 -12 122 10 17 11 32 22 32 25 0 2 -15 9 -33 14 l-32 9 32 1 c17 1 38 -5 45
-12 17 -17 103 -28 116 -15 7 7 18 5 32 -5 20 -14 20 -16 5 -24 -15 -9 -12
-13 19 -31 38 -23 50 -64 21 -76 -8 -3 -15 -17 -15 -31 0 -15 -4 -24 -10 -20
-16 10 -12 -17 15 -99 16 -48 25 -100 25 -139 0 -98 10 -133 46 -174 19 -21
29 -39 24 -41 -20 -7 -9 -22 15 -22 14 0 25 -4 25 -10 0 -5 6 -7 13 -4 7 2 30
-11 51 -31 21 -19 41 -35 46 -35 5 0 6 -8 3 -17 -5 -12 -2 -15 10 -10 8 3 21
-1 27 -9 7 -7 30 -19 53 -25 41 -11 96 -44 110 -66 4 -7 19 -13 32 -13 23 0
73 -21 145 -60 19 -10 43 -19 53 -20 10 0 17 -8 17 -21 0 -11 5 -17 10 -14 6
4 24 -1 41 -9 17 -9 35 -13 40 -10 5 3 9 -2 9 -10 0 -10 6 -13 16 -9 10 4 22
0 28 -9 10 -13 60 -34 186 -75 25 -8 61 -22 80 -31 19 -9 39 -15 44 -14 4 2
14 -5 22 -15 9 -13 13 -14 14 -4 0 10 3 11 14 2 7 -6 24 -11 37 -10 13 0 38
-3 54 -6 17 -3 41 -8 54 -11 19 -4 22 -7 11 -14 -11 -7 -8 -10 12 -15 15 -4
31 -5 35 -2 11 7 105 -12 117 -24 6 -5 18 -9 28 -9 10 0 18 -5 18 -11 0 -6 7
-9 15 -6 8 4 17 3 19 -2 3 -4 19 -6 37 -3 24 4 30 2 24 -8 -5 -8 -4 -11 2 -7
6 4 25 2 43 -4 26 -9 34 -9 41 2 7 11 9 10 9 -3 0 -13 8 -18 28 -18 16 0 31
-3 35 -6 3 -3 29 -7 57 -9 28 -2 71 -14 96 -25 29 -14 56 -20 78 -17 24 3 36
0 40 -10 3 -8 10 -11 16 -8 5 3 15 3 22 -1 14 -9 27 -11 133 -19 97 -7 107
-10 103 -31 -2 -9 3 -19 10 -21 7 -3 12 4 12 17 0 12 4 18 10 15 6 -4 8 -10 5
-15 -3 -5 4 -11 15 -15 11 -3 20 -12 20 -19 0 -7 18 -18 41 -25 28 -9 39 -17
35 -26 -6 -15 27 -39 38 -28 3 3 6 -1 6 -10 0 -9 -6 -17 -14 -17 -8 0 -18 -10
-22 -22 -5 -17 0 -28 27 -50 24 -20 34 -37 34 -59 1 -31 21 -52 42 -44 7 2 15
0 18 -5 4 -6 -1 -10 -9 -10 -23 0 -19 -17 5 -23 14 -4 20 -11 16 -20 -3 -8 5
-24 19 -36 13 -11 24 -25 24 -31 0 -7 125 -10 359 -10 l360 0 3 22 c2 12 9 23
16 24 7 1 8 0 2 -3 -5 -2 -10 -13 -10 -24 0 -18 15 -19 575 -19 568 0 575 0
575 20 0 11 5 20 10 20 6 0 10 -9 10 -20 0 -11 5 -20 10 -20 6 0 10 9 10 20 0
11 5 20 10 20 6 0 10 -9 10 -20 0 -11 5 -20 11 -20 7 0 9 12 5 35 -4 22 -3 35
4 35 5 0 10 5 10 10 0 6 -7 10 -15 10 -20 0 -19 17 1 28 15 8 15 12 -2 37
l-18 28 -8 -24 c-6 -19 -7 -17 -3 9 5 38 -1 40 -48 8 -37 -26 -47 -24 -47 6 0
23 -16 24 -24 1 -5 -12 -9 -14 -18 -5 -9 9 -7 15 7 26 11 8 25 12 32 9 7 -3
13 2 13 11 0 10 -9 16 -25 16 -20 0 -29 -9 -46 -45 -12 -25 -30 -52 -41 -60
-20 -13 -19 -14 8 -18 16 -2 8 -3 -17 0 -41 3 -47 1 -52 -18 -5 -17 -11 -20
-31 -17 -16 3 -26 1 -26 -7 0 -21 -45 -38 -68 -26 -27 15 -38 14 -55 -3 -12
-13 -19 -13 -51 2 -23 11 -35 23 -33 34 1 9 -6 23 -17 31 -18 13 -16 15 20 29
45 18 84 59 84 88 0 13 7 20 20 20 11 0 20 5 20 11 0 6 9 8 20 4 14 -5 20 -2
20 9 0 9 8 16 19 16 12 0 21 8 24 23 l4 22 2 -22 c1 -26 5 -27 30 -14 9 5 23
6 31 1 19 -12 40 -1 40 21 0 14 7 19 25 19 15 0 25 -6 25 -15 0 -9 6 -12 16
-8 11 4 15 0 14 -13 -4 -37 0 -45 18 -40 13 4 23 -4 36 -29 18 -33 36 -46 36
-26 0 18 -35 71 -50 74 -12 3 -11 6 4 12 11 5 26 4 36 -3 10 -6 21 -8 24 -5
12 12 6 22 -16 25 -18 2 -23 9 -23 35 0 17 -3 35 -7 39 -5 4 -8 -7 -8 -24 0
-23 -5 -32 -16 -32 -12 0 -14 5 -8 18 4 9 8 31 9 47 2 21 7 29 18 27 8 -1 18
2 21 7 8 13 -22 68 -47 86 -18 13 -19 15 -4 15 9 0 17 5 17 11 0 7 -11 8 -29
4 -28 -6 -29 -4 -39 42 -6 26 -15 59 -21 73 -9 23 -10 21 -10 -17 -1 -24 -5
-43 -11 -43 -5 0 -10 7 -10 15 0 23 -18 18 -22 -7 -2 -14 -12 -24 -28 -28 -18
-4 -25 -13 -26 -30 -1 -44 -3 -47 -46 -75 -24 -16 -37 -30 -30 -33 16 -5 16
-32 -1 -32 -7 0 -19 6 -25 12 -10 10 -17 10 -32 0 -12 -7 -21 -8 -25 -2 -9 15
-25 2 -18 -15 3 -8 0 -15 -6 -15 -6 0 -11 5 -11 11 0 8 -13 10 -38 7 -21 -3
-56 1 -78 8 -21 8 -47 14 -56 14 -21 0 -48 37 -48 66 0 23 44 49 63 37 7 -4 4
-9 -9 -15 -18 -8 -18 -8 1 -5 12 1 21 11 23 25 4 29 31 41 44 19 19 -34 98 -6
84 29 -3 8 -1 14 4 14 6 0 10 -4 10 -10 0 -5 9 -10 20 -10 25 0 27 20 3 21
-14 0 -13 2 4 9 13 5 23 14 23 20 0 5 5 10 10 10 6 0 10 -9 10 -19 0 -11 4
-23 10 -26 6 -3 7 1 4 9 -4 10 1 18 11 22 9 4 14 13 11 20 -3 9 2 14 14 14 15
0 20 7 20 24 0 27 16 44 22 24 3 -7 12 2 20 19 15 31 15 32 -6 36 -20 4 -20 4
0 6 18 1 21 8 22 57 1 53 0 56 -28 66 -17 5 -33 19 -36 31 -6 23 -54 65 -54
47 0 -5 -7 -10 -15 -10 -17 0 -35 29 -35 57 0 3 -9 -2 -20 -12 -14 -13 -19
-14 -15 -4 4 11 -7 15 -52 16 -32 2 -60 8 -62 14 -2 6 -12 19 -22 27 -21 18
-25 47 -9 57 6 3 10 19 10 36 0 19 5 29 15 29 10 0 15 10 15 29 0 16 6 32 12
34 8 3 6 6 -4 6 -21 1 -23 21 -6 40 11 11 9 12 -11 6 -19 -6 -23 -4 -18 8 3 9
1 17 -5 19 -6 2 -11 25 -11 51 1 39 -2 47 -17 47 -10 0 -21 7 -24 16 -5 13 -1
15 16 11 20 -5 23 -2 24 25 1 16 7 34 14 38 7 4 10 15 7 24 -5 11 -1 16 12 16
20 0 31 19 31 52 0 11 8 22 20 25 11 3 17 9 14 14 -3 5 6 23 20 40 14 17 26
35 26 40 0 11 51 58 63 59 4 0 7 -7 7 -15 0 -8 3 -15 8 -16 4 0 27 -3 52 -5
101 -11 210 -58 210 -91 0 -25 16 -39 23 -21 4 9 8 10 14 2 4 -6 16 -14 26
-17 11 -4 21 -16 24 -27 3 -11 11 -20 17 -20 6 0 19 -12 28 -27 10 -16 18 -22
18 -15 0 6 5 12 11 12 6 0 9 -7 5 -15 -3 -8 -1 -15 4 -15 18 0 40 -32 40 -59
0 -15 3 -31 7 -34 3 -4 6 -32 6 -63 0 -39 3 -51 9 -40 5 9 6 21 3 26 -3 6 -1
10 4 10 6 0 11 -12 11 -27 1 -30 20 -63 38 -63 6 0 24 -14 41 -31 22 -21 31
-26 31 -15 0 25 18 19 22 -6 2 -13 10 -23 18 -23 10 0 16 -13 18 -40 2 -22 12
-47 22 -57 25 -23 33 -53 21 -75 -6 -12 -6 -25 2 -38 6 -11 11 -53 12 -92 0
-40 3 -73 8 -73 9 0 -2 -51 -16 -68 -7 -9 -7 -24 2 -48 13 -37 8 -54 -15 -54
-9 0 -14 -6 -11 -12 2 -7 12 -12 22 -10 15 3 16 -1 11 -25 -4 -15 -10 -53 -12
-83 -3 -30 -10 -60 -16 -67 -7 -9 -7 -13 1 -13 6 0 11 -4 11 -10 0 -5 -7 -10
-15 -10 -8 0 -15 -5 -15 -11 0 -5 4 -8 9 -5 4 3 17 -4 27 -16 11 -12 14 -18 7
-15 -6 4 -14 3 -18 -3 -3 -5 -2 -10 3 -10 28 0 22 -56 -6 -63 -12 -3 -10 -5 6
-6 17 -1 22 -7 21 -28 0 -25 -1 -26 -10 -8 -7 16 -8 12 -6 -17 2 -26 -1 -38
-10 -38 -7 0 -13 -4 -13 -10 0 -5 7 -10 15 -10 8 0 15 -5 15 -10 0 -6 -3 -9
-7 -9 -31 5 -48 -23 -20 -34 9 -4 9 -6 0 -6 -7 -1 -13 -10 -13 -20 0 -11 -9
-23 -20 -26 -11 -3 -20 -11 -20 -17 0 -6 -7 -20 -17 -30 -16 -17 9 -18 780
-18 l797 0 -1 2588 c-1 2028 -4 2577 -13 2542 -8 -29 -15 -40 -20 -32 -4 7 -5
24 -2 38 4 14 2 24 -4 24 -5 0 -10 -7 -10 -15 0 -23 -30 -50 -70 -64 -25 -8
-36 -9 -38 -1 -2 6 -14 15 -26 20 -14 5 -35 34 -55 76 -18 38 -39 81 -47 96
-8 14 -14 35 -14 46 0 11 -6 22 -12 24 -10 4 -30 94 -52 228 -1 9 -5 21 -9 27
-4 7 -8 27 -8 45 0 32 -4 117 -12 261 -2 37 0 70 5 73 5 4 7 12 5 18 -3 7 -2
18 2 25 11 17 -7 107 -30 158 -10 23 -19 46 -19 50 0 4 -16 25 -35 46 -19 21
-35 40 -35 43 0 3 13 3 29 -1 30 -6 30 -6 24 29 -4 25 -2 36 7 36 7 0 10 -7 5
-17 -4 -13 6 -28 37 -55 24 -21 35 -35 26 -32 -10 3 -18 1 -18 -5 0 -10 14
-15 34 -12 4 1 23 -10 42 -24 19 -14 34 -21 34 -15 0 6 5 8 11 5 6 -4 8 -13 5
-21 -3 -9 2 -14 14 -14 13 0 25 -12 35 -36 12 -30 18 -34 29 -25 10 8 16 9 21
1 3 -5 1 -10 -4 -10 -17 0 -13 -18 10 -38 11 -11 19 -26 18 -33 -4 -24 12 -67
28 -73 8 -3 12 -10 8 -15 -8 -14 15 -25 27 -13 13 13 38 -9 38 -32 0 -9 8 -16
20 -16 18 0 20 7 20 85 0 50 -4 85 -10 85 -5 0 -10 9 -10 19 0 30 -11 52 -22
44 -7 -4 -9 6 -4 29 6 35 -12 67 -31 55 -11 -7 -38 52 -29 61 4 3 12 0 17 -8
9 -13 10 -13 6 0 -2 8 -12 14 -21 14 -9 -1 -16 2 -16 7 0 5 -6 9 -13 9 -15 0
-40 38 -32 50 3 5 -4 11 -15 15 -11 3 -20 11 -20 17 0 5 -10 19 -22 30 -16 13
-19 21 -10 24 17 8 15 44 -4 65 -14 15 -12 19 18 48 18 17 39 31 47 31 8 0 11
6 7 15 -4 11 6 22 29 36 19 12 35 25 35 30 0 16 68 79 85 79 13 0 15 20 15
130 l0 130 -705 0 c-632 0 -705 -2 -705 -16 0 -8 -5 -12 -10 -9 -6 4 -8 11 -5
16 10 15 -45 10 -61 -6 -18 -18 -44 -20 -44 -4 0 6 7 9 15 6 8 -4 17 -2 20 2
2 5 -22 9 -55 10 -47 0 -60 -3 -60 -14 0 -8 6 -15 14 -15 16 0 26 -21 26 -58
0 -34 10 -48 35 -55 13 -3 9 -5 -12 -6 -26 -1 -33 -5 -33 -21 0 -11 -4 -20 -9
-20 -5 0 -11 9 -14 20 -9 35 -23 22 -19 -17 2 -21 11 -44 20 -52 15 -12 15
-12 -5 -6 -18 5 -23 2 -23 -12 0 -10 9 -24 21 -31 12 -8 18 -19 15 -28 -3 -8
1 -17 8 -20 8 -3 17 -28 21 -60 3 -30 10 -52 15 -49 5 3 11 1 14 -4 8 -12 15
-142 16 -261 0 -63 3 -90 10 -80 11 18 23 8 14 -13 -3 -9 -12 -13 -20 -10 -17
6 -19 -8 -3 -24 12 -12 -4 -53 -21 -53 -6 0 -10 -10 -10 -23 0 -12 -9 -40 -20
-62 -21 -42 -19 -60 5 -29 8 10 15 14 15 7 0 -7 -11 -24 -25 -39 -22 -23 -38
-70 -18 -50 5 4 8 11 8 15 0 4 12 20 28 36 15 17 34 37 41 45 8 8 20 27 27 43
7 15 16 27 21 27 11 0 10 -18 -2 -25 -6 -4 -7 -11 -4 -17 4 -7 2 -8 -4 -4 -8
5 -12 0 -12 -13 0 -12 -6 -21 -13 -21 -6 0 -17 -15 -23 -34 -13 -42 6 -40 23
2 l11 27 1 -27 c1 -16 -4 -28 -10 -28 -6 0 -9 -7 -6 -14 4 -10 1 -13 -9 -9
-15 6 -20 -22 -5 -31 10 -7 -9 -66 -21 -66 -4 0 -8 -8 -8 -17 0 -9 -7 -25 -17
-35 -15 -17 -15 -18 0 -18 10 0 17 7 17 16 0 10 6 13 19 9 20 -6 31 16 31 63
0 13 8 31 17 40 16 16 16 16 9 -3 -18 -43 -18 -65 0 -82 17 -17 17 -17 11 0
-4 11 -2 17 8 17 18 0 19 -12 2 -53 -8 -18 -12 -38 -10 -44 3 -7 0 -13 -6 -13
-6 0 -11 -13 -11 -29 0 -16 -6 -32 -12 -34 -7 -3 -3 -6 8 -6 24 -1 46 42 59
112 4 21 14 41 22 46 11 6 12 10 4 15 -7 5 -1 16 19 32 31 26 61 25 39 -2 -8
-10 -8 -14 0 -14 6 0 11 -5 11 -11 0 -6 -10 -8 -22 -5 -13 3 -17 3 -10 0 10
-5 10 -9 1 -20 -15 -18 11 -20 29 -2 9 9 12 7 14 -13 1 -13 2 -31 3 -40 0 -9
5 -23 11 -30 6 -8 14 -23 19 -34 5 -14 9 -16 12 -7 3 8 0 19 -6 25 -12 12 -15
60 -4 70 9 10 34 -13 27 -25 -3 -5 6 -25 21 -44 15 -19 24 -38 20 -42 -3 -3
-10 0 -15 8 -8 13 -10 13 -10 -1 0 -9 8 -20 17 -23 14 -6 15 -9 4 -15 -11 -7
-9 -11 8 -21 22 -11 22 -12 4 -27 -17 -13 -16 -14 14 -9 20 3 33 1 37 -7 2 -7
5 14 5 46 1 31 4 57 9 57 4 0 7 -34 6 -76 -1 -68 1 -77 20 -84 21 -9 21 -9 -1
-9 -19 -1 -22 -5 -18 -31 10 -63 13 -95 9 -83 -7 15 -42 -17 -37 -33 3 -8 -8
-10 -34 -5 -61 11 -126 4 -139 -13 -6 -9 -18 -16 -26 -16 -9 0 -18 -9 -21 -20
-4 -16 -14 -20 -46 -20 -28 0 -49 -7 -63 -20 -12 -10 -25 -17 -30 -14 -5 3
-16 -2 -24 -12 -13 -18 -15 -18 -25 -1 -6 10 -15 14 -22 10 -7 -5 -21 -8 -32
-8 -11 0 -19 -6 -17 -13 5 -26 -27 -45 -66 -39 -25 5 -32 3 -22 -3 12 -8 12
-10 -5 -10 -22 -1 -65 -32 -65 -48 0 -5 10 -14 23 -21 19 -10 15 -11 -28 -7
-27 2 -42 2 -32 -1 22 -6 19 -32 -6 -47 -13 -8 -20 -8 -25 1 -6 10 -12 10 -28
-2 -17 -13 -17 -14 -2 -15 9 0 20 -5 24 -12 4 -6 3 -8 -4 -4 -6 3 -14 2 -17
-4 -4 -6 -15 -8 -26 -5 -10 4 -19 3 -20 -2 0 -4 -2 -17 -3 -29 -3 -25 -41 -65
-58 -61 -8 1 -14 -10 -16 -25 -2 -16 -9 -28 -15 -28 -8 0 -7 -3 2 -9 15 -10 7
-31 -12 -31 -7 0 -21 -28 -32 -62 -22 -70 -24 -173 -4 -293 15 -91 16 -107 25
-255 8 -152 13 -169 48 -163 28 6 37 33 11 33 -8 0 -15 7 -15 15 0 8 7 15 15
15 8 0 15 7 15 15 0 8 -5 15 -12 15 -6 0 -9 3 -5 6 3 4 0 19 -8 35 -17 32 -21
114 -5 89 5 -8 7 -23 4 -32 -3 -10 -1 -18 5 -18 6 0 11 -8 12 -17 0 -14 2 -15
6 -3 4 8 15 23 27 33 19 17 37 17 80 1 9 -3 16 -1 16 5 0 16 27 13 34 -4 4
-10 -1 -15 -15 -15 -17 0 -18 -3 -9 -20 14 -26 26 -25 33 1 5 17 11 20 31 15
17 -4 35 -1 51 10 23 15 26 15 55 -6 l31 -22 23 27 c18 21 29 26 47 20 21 -7
21 -9 6 -20 -9 -7 -17 -18 -17 -26 1 -10 4 -9 11 4 16 27 27 20 41 -24 10 -33
13 -38 19 -23 7 17 8 17 8 2 1 -10 8 -18 16 -18 8 0 15 -4 15 -10 0 -13 37
-13 44 -1 4 5 1 11 -5 13 -6 2 0 9 15 16 18 8 26 8 26 1 0 -8 5 -7 15 1 13 11
15 -3 17 -116 3 -168 1 -266 -5 -334 -8 -87 -54 -315 -68 -341 -7 -13 -12 -27
-11 -31 2 -8 -22 -76 -40 -115 -6 -12 -12 -32 -13 -45 -1 -13 -3 -26 -4 -31 0
-4 -12 -16 -25 -28 -16 -14 -22 -27 -18 -45 2 -13 -1 -31 -8 -39 -10 -12 -10
-15 1 -15 9 0 8 -4 -3 -12 -9 -7 -18 -24 -20 -38 -2 -14 -8 -24 -14 -23 -6 1
-17 -21 -24 -48 -8 -27 -20 -55 -27 -61 -7 -6 -13 -16 -13 -22 0 -14 -50 -118
-60 -126 -4 -3 -12 -21 -19 -41 -6 -19 -27 -52 -46 -73 -18 -20 -34 -39 -34
-42 -1 -2 -1 -13 -1 -24 0 -11 -7 -20 -15 -20 -8 0 -15 -8 -15 -17 -1 -24 -26
-69 -37 -65 -4 2 -11 -7 -14 -20 -3 -14 -12 -22 -22 -22 -10 1 -17 -6 -17 -17
0 -13 5 -17 18 -13 21 6 -15 -12 -40 -20 -10 -3 -18 -10 -18 -16 0 -6 4 -8 10
-5 25 15 6 -20 -30 -57 -22 -23 -40 -37 -40 -31 0 6 5 13 11 15 15 5 0 38 -17
38 -18 0 -31 -30 -16 -39 15 -9 3 -99 -14 -105 -11 -4 -13 5 -8 49 6 47 4 55
-10 55 -9 0 -16 -8 -17 -17 0 -16 -1 -16 -8 1 -9 23 -16 14 -26 -32 -5 -25 -3
-32 9 -32 9 0 16 -8 16 -20 0 -26 -20 -26 -27 0 -3 11 -10 20 -15 20 -13 0
-38 26 -38 40 0 7 -8 9 -21 5 -19 -6 -21 -4 -16 14 4 16 1 21 -13 21 -18 0
-18 1 -2 30 14 25 15 33 4 50 -7 12 -10 25 -7 30 3 4 -1 11 -7 13 -27 11 17
28 60 24 23 -3 45 -1 48 4 3 5 0 9 -7 9 -7 0 -9 3 -6 6 8 8 37 -14 37 -27 0
-5 -9 -9 -20 -9 -11 0 -20 -4 -20 -9 0 -5 10 -7 22 -4 29 7 71 50 58 58 -6 3
-10 1 -10 -4 0 -20 -20 -11 -30 13 -5 13 -11 62 -15 108 -7 109 -9 118 -23
127 -6 4 -12 22 -14 41 -2 38 -28 75 -36 52 -7 -23 -22 -12 -16 13 3 14 2 25
-4 25 -6 0 -8 10 -4 23 5 19 4 20 -11 9 -9 -8 -22 -10 -28 -6 -9 5 -10 2 -6
-9 5 -12 1 -17 -12 -17 -10 0 -21 -9 -24 -20 -6 -25 -28 -27 -24 -2 1 9 -2 17
-8 17 -5 0 -9 -5 -7 -12 4 -18 -35 -53 -52 -47 -15 6 -48 -22 -59 -49 -9 -24
-37 -21 -37 3 0 25 -10 25 -55 0 -32 -18 -35 -18 -36 -2 -1 19 -4 11 -13 -30
-8 -36 -37 -37 -107 -1 -35 17 -54 22 -57 15 -7 -22 -30 -13 -25 9 5 19 3 21
-28 15 -80 -16 -119 -29 -119 -42 0 -19 -15 -18 -34 2 -15 14 -17 14 -22 0 -4
-11 -19 -16 -44 -16 -38 0 -82 -12 -135 -35 -30 -14 -45 -12 -45 6 0 5 7 9 16
7 10 -2 19 2 21 8 2 7 -8 11 -28 10 -22 -1 -34 -8 -39 -21 -4 -13 -9 -15 -14
-7 -10 17 -36 15 -36 -2 0 -20 -51 -27 -77 -10 -12 8 -30 14 -40 13 -16 0 -16
-1 1 -8 18 -7 18 -8 2 -14 -10 -4 -37 -7 -61 -7 -35 0 -45 -4 -50 -20 -9 -27
13 -47 61 -56 21 -3 44 -10 49 -14 16 -12 105 -39 105 -32 0 3 7 -3 15 -14 9
-12 14 -14 15 -6 0 26 25 5 25 -21 0 -15 5 -26 10 -26 6 0 9 13 7 30 -2 32 9
37 28 14 9 -10 9 -15 1 -15 -6 0 -11 -5 -11 -10 0 -6 6 -10 14 -8 8 2 15 -1
15 -7 0 -5 -9 -9 -19 -7 -11 2 -20 -2 -20 -7 0 -11 34 -15 102 -13 24 1 37 -3
35 -10 -1 -7 7 -14 17 -16 23 -5 46 -26 46 -41 0 -19 53 -12 77 11 13 12 23
16 23 9 0 -7 13 -17 30 -22 16 -6 28 -16 27 -22 -1 -6 7 -13 18 -15 16 -4 17
-2 7 11 -11 13 -10 16 5 19 36 7 75 -5 83 -26 7 -17 9 -18 9 -3 1 26 61 19 61
-8 0 -20 24 -24 45 -9 23 17 55 18 55 3 0 -6 7 -8 16 -5 9 4 32 4 50 0 29 -5
34 -10 34 -35 0 -31 14 -39 24 -14 3 8 12 15 21 15 17 0 20 -16 5 -25 -6 -4
-8 -11 -5 -16 4 -5 3 -18 0 -30 -5 -15 -10 -18 -20 -9 -10 9 -16 7 -24 -9 -6
-11 -11 -24 -10 -28 1 -4 0 -21 -1 -38 -2 -29 -2 -29 -9 -5 -7 25 -7 25 -13 3
-5 -18 -13 -23 -37 -23 -17 0 -31 5 -31 11 0 6 -7 3 -16 -5 -8 -9 -32 -16 -52
-16 l-37 -1 28 -15 c15 -8 27 -17 27 -20 0 -14 -51 8 -75 32 -14 14 -29 23
-34 20 -19 -12 -113 -9 -121 4 -5 7 -15 10 -25 6 -13 -5 -15 -9 -6 -20 10 -11
-10 -13 -121 -10 -81 1 -121 -1 -103 -5 l30 -9 -27 -1 c-34 -1 -36 -14 -6 -35
15 -11 25 -12 34 -6 15 13 44 2 44 -16 0 -9 -12 -14 -32 -14 -18 0 -42 -7 -52
-15 -19 -15 -19 -15 1 -15 12 0 34 5 48 10 15 6 31 8 35 5 13 -8 1 -33 -18
-38 -10 -2 -3 -2 15 0 73 9 164 4 192 -10 22 -11 31 -12 34 -3 3 8 13 7 38 -3
19 -8 54 -15 79 -17 l45 -2 -45 7 -45 8 44 1 c31 2 47 -3 56 -15 13 -17 14
-17 33 1 16 13 29 16 53 11 18 -4 51 -7 73 -7 22 1 44 -4 48 -10 14 -24 125
31 139 69 2 6 15 13 29 15 34 4 38 -26 6 -55 -18 -17 -23 -30 -19 -46 5 -20 3
-22 -16 -16 -19 6 -22 3 -21 -17 3 -36 0 -44 -10 -28 -7 12 -10 8 -10 -15 0
-19 -8 -36 -20 -45 -13 -10 -20 -26 -20 -50 0 -21 -3 -30 -8 -22 -6 8 -15 3
-32 -20 -15 -21 -19 -33 -12 -36 18 -6 14 -19 -8 -25 -13 -3 -18 -10 -14 -21
3 -9 1 -16 -5 -16 -13 0 -30 -40 -33 -75 -1 -13 -5 -22 -9 -19 -4 2 -10 -5
-14 -16 -3 -11 -15 -20 -26 -20 -10 0 -19 -5 -19 -11 0 -6 -11 -25 -25 -43
-88 -110 -169 -169 -260 -191 -69 -17 -230 -17 -325 0 -52 10 -104 21 -115 25
-11 5 -38 11 -60 15 -46 7 -95 26 -95 37 0 5 -8 8 -17 8 -10 0 -31 7 -47 15
-15 8 -38 15 -50 15 -11 0 -30 7 -40 15 -11 8 -27 15 -37 15 -9 0 -69 25 -134
55 -65 31 -123 54 -129 52 -6 -2 -19 6 -28 19 -10 12 -29 25 -43 28 -14 4 -25
11 -25 16 0 6 -7 10 -15 10 -7 0 -18 7 -23 16 -9 16 -31 30 -99 63 -24 11 -43
25 -43 32 0 7 -3 9 -7 6 -3 -4 -15 1 -26 10 -10 10 -22 18 -26 18 -3 0 -5 3
-4 8 3 7 -5 9 -42 11 -10 1 -24 11 -31 24 -10 21 -12 21 -18 5 -6 -15 -10 -13
-23 15 -8 17 -20 32 -25 32 -5 0 -21 9 -35 20 -14 11 -34 20 -44 20 -23 0 -35
20 -19 30 9 6 -1 12 -29 20 -24 6 -39 15 -35 21 3 6 -5 13 -17 16 -13 4 -25 5
-26 2 -2 -2 -10 6 -18 19 -9 12 -25 22 -36 22 -12 0 -19 7 -19 20 0 11 -5 20
-12 20 -6 0 -26 11 -45 26 -18 14 -33 21 -34 17 0 -4 -4 2 -9 14 -6 13 -18 23
-30 23 -12 0 -20 7 -20 16 0 9 -9 18 -20 21 -10 3 -22 14 -25 24 -6 18 -21 24
-58 21 -11 -1 -21 8 -27 24 -6 14 -19 28 -29 31 -22 6 -35 40 -17 47 6 2 -4 9
-21 16 -39 14 -43 30 -8 30 14 0 25 -5 25 -11 0 -5 5 -7 11 -4 5 4 18 0 28
-10 34 -30 92 0 60 32 -15 15 -29 161 -31 336 -2 86 -4 97 -15 80 -12 -15 -14
-5 -11 77 2 52 1 118 0 145 -2 28 -1 79 2 115 3 36 8 96 11 134 3 38 10 75 16
83 8 9 8 13 0 13 -15 0 -14 67 2 73 8 4 7 6 -3 6 -12 1 -15 15 -14 69 0 37 4
77 8 90 5 14 3 29 -4 37 -13 15 -4 39 11 30 5 -4 9 -16 10 -28 l0 -22 11 23
c8 16 8 29 0 46 -7 16 -7 27 0 34 6 6 13 59 15 119 3 59 10 114 15 120 6 7 7
21 3 30 -10 22 -8 60 4 143 13 83 21 111 31 105 5 -3 11 -1 15 4 3 5 -2 14
-11 19 -12 7 -14 14 -7 28 5 10 11 38 12 62 1 24 6 65 11 90 4 26 6 50 3 55
-3 5 4 11 16 14 22 6 29 23 10 23 -8 0 -7 5 1 15 10 12 10 20 1 38 -9 18 -9
29 0 52 14 37 17 75 6 82 -4 2 -4 10 1 16 5 7 12 34 15 61 2 27 9 51 14 55 5
3 10 19 11 36 1 16 7 34 13 40 8 7 9 -2 4 -32 -4 -29 -3 -43 4 -43 11 0 12 1
16 36 3 34 16 49 26 33 7 -11 9 -11 9 2 0 18 -26 33 -41 23 -5 -3 -9 -1 -9 4
0 4 23 15 51 22 28 8 54 20 56 28 3 7 16 17 29 22 12 5 29 22 36 37 10 20 20
27 37 25 15 -1 34 8 52 28 16 16 34 30 40 30 5 0 7 5 4 10 -4 6 7 13 24 16 17
4 31 10 31 15 0 12 47 12 54 0 3 -5 -4 -11 -16 -15 -17 -4 -20 -8 -11 -17 8
-8 16 -8 31 0 10 6 22 8 25 5 3 -3 3 5 0 18 l-5 23 20 -24 c11 -14 28 -31 37
-38 17 -11 16 -13 -10 -23 -22 -8 -25 -13 -16 -24 16 -19 3 -66 -18 -67 -11 0
-9 -3 7 -9 12 -6 22 -18 22 -30 0 -11 4 -20 9 -20 5 0 7 -9 4 -20 -4 -14 0
-20 11 -20 9 0 16 -4 16 -10 0 -5 12 -12 28 -16 15 -3 34 -8 43 -10 22 -6 30
17 19 53 -4 15 -9 22 -9 16 -2 -21 -21 -14 -21 7 0 11 7 20 15 20 8 0 15 7 15
15 0 8 -7 15 -15 15 -8 0 -15 -5 -15 -10 0 -6 -8 -5 -20 2 -11 7 -20 20 -20
30 0 18 -16 33 -23 21 -2 -5 -2 -2 0 6 2 7 -2 20 -8 28 -17 20 -3 28 16 9 9
-9 25 -16 35 -16 10 0 20 -5 22 -12 3 -7 12 -9 24 -4 18 7 18 8 -3 24 -12 9
-27 29 -32 44 -10 26 -8 28 27 38 56 15 62 13 62 -20 0 -16 4 -30 10 -30 5 0
7 -6 4 -14 -5 -12 10 -27 78 -79 12 -10 31 -15 41 -12 9 3 27 8 40 11 19 5 20
4 5 -6 -10 -6 -18 -14 -18 -18 0 -15 67 -32 126 -32 89 0 149 32 204 108 25
34 50 62 56 62 14 0 24 33 24 78 0 20 4 31 10 27 6 -3 10 3 10 14 0 10 -6 22
-12 25 -7 3 -4 4 7 3 13 -2 19 -9 17 -20 -2 -9 5 -20 15 -24 10 -4 21 -11 25
-17 10 -15 38 -16 38 -1 0 7 -14 19 -30 27 -33 14 -35 31 -4 36 16 3 16 1 4
-7 -9 -7 -10 -11 -3 -11 6 0 19 -7 28 -16 12 -12 19 -13 29 -5 17 15 28 0 15
-19 -17 -28 -8 -35 13 -10 14 16 19 19 15 8 -4 -12 -1 -18 9 -18 8 0 12 -5 9
-11 -4 -6 3 -13 15 -16 15 -4 20 -11 17 -24 -3 -11 -1 -22 4 -25 5 -3 7 -10 4
-15 -4 -5 -2 -9 4 -9 6 0 22 -25 36 -55 15 -30 31 -55 36 -55 5 0 8 -15 8 -32
-2 -27 -3 -28 -6 -8 -2 14 -14 30 -28 37 -29 13 -32 8 -9 -14 9 -9 13 -25 10
-38 -4 -16 -1 -21 12 -20 10 0 22 3 27 6 24 13 63 8 69 -9 3 -9 9 -23 12 -29
3 -8 -1 -13 -10 -13 -9 0 -16 -7 -16 -15 0 -21 -12 -19 -38 5 -12 12 -22 16
-22 10 0 -14 -27 -13 -36 2 -4 6 -3 8 4 4 6 -3 13 -2 17 4 10 16 -41 12 -54
-4 -7 -8 -21 -12 -31 -9 -14 4 -20 0 -20 -11 0 -10 -9 -16 -24 -16 -34 0 -42
-18 -14 -30 20 -9 20 -10 3 -9 -33 2 -45 -1 -42 -9 2 -7 -6 -12 -23 -12 -7 0
-7 6 0 20 6 11 7 20 2 20 -17 0 -21 -44 -7 -67 20 -30 19 -38 -7 -50 -15 -6
-18 -12 -10 -17 7 -4 12 -3 12 2 0 5 11 7 25 4 28 -5 30 0 13 28 -10 16 -10
23 4 36 15 15 17 15 28 -6 10 -19 17 -21 48 -15 67 12 112 14 118 3 4 -7 9 -6
14 3 11 17 1 41 -14 32 -21 -14 -68 -12 -62 3 3 7 -3 15 -12 17 -13 4 -11 5 5
6 12 0 23 -4 25 -10 2 -6 14 -2 28 10 22 18 23 22 10 32 -12 9 -11 10 5 4 11
-4 28 -10 38 -12 26 -8 21 -21 -10 -26 -23 -3 -21 -4 10 -6 31 -1 37 2 37 20
0 11 4 17 10 14 5 -3 10 -1 10 6 0 7 7 21 17 31 14 16 15 21 2 46 -8 15 -20
31 -27 35 -7 5 -10 13 -6 18 3 5 -4 25 -15 44 -24 42 -9 58 20 21 12 -16 26
-23 37 -20 13 5 14 4 3 -4 -15 -11 -8 -42 9 -42 5 0 10 9 10 21 0 12 5 19 12
17 7 -3 13 -10 13 -16 0 -20 15 -25 28 -9 11 15 15 15 44 0 34 -16 45 -43 18
-43 -8 0 -15 7 -15 16 0 8 -4 12 -10 9 -6 -4 -6 -12 1 -24 10 -15 17 -16 45
-7 34 11 55 43 36 55 -6 4 -5 10 3 18 10 9 14 5 19 -20 5 -25 9 -29 16 -17 15
23 12 66 -5 80 -12 10 -13 15 -4 20 13 8 21 46 22 98 1 34 6 39 24 21 15 -15
22 1 16 33 l-5 27 -18 -21 c-12 -15 -22 -19 -36 -14 -18 7 -18 8 -1 21 18 13
18 14 -5 26 -14 7 -18 14 -10 17 15 5 16 32 2 32 -6 0 -13 -7 -16 -15 -7 -18
-54 -20 -54 -3 0 7 -12 25 -27 40 -20 21 -23 28 -11 28 15 0 28 19 28 41 0 13
-74 11 -103 -2 -19 -9 -30 -8 -49 5 -14 9 -28 13 -31 9 -4 -3 -7 1 -7 11 0 24
-34 16 -38 -9 -2 -11 -14 -28 -27 -38 -24 -17 -25 -17 -44 2 -14 14 -17 22 -9
27 7 4 14 2 16 -4 6 -18 29 -15 36 4 4 9 4 19 1 22 -3 3 -5 0 -5 -6 0 -21 -28
-13 -48 13 -12 15 -23 21 -27 15 -12 -20 -25 -10 -19 15 5 20 3 24 -9 19 -9
-3 -18 -12 -21 -20 -7 -19 -45 -18 -52 1 -9 22 -30 18 -48 -7 -9 -12 -16 -17
-16 -10 0 6 -7 12 -16 12 -8 0 -12 5 -9 11 4 6 13 8 20 5 13 -5 25 14 25 39 0
25 -35 21 -73 -8 -37 -29 -61 -31 -38 -3 8 10 9 16 1 21 -5 3 -10 -1 -10 -9 0
-18 -16 -21 -25 -6 -4 6 -10 8 -15 5 -4 -3 -6 4 -3 15 3 11 2 20 -1 20 -9 0
-48 -23 -64 -38 -17 -15 -33 -7 -25 13 3 8 0 15 -6 15 -7 0 -14 -7 -17 -15 -4
-8 -10 -15 -15 -15 -4 0 -6 6 -3 14 4 10 -2 14 -19 12 -14 0 -23 -5 -20 -10 4
-5 -5 -6 -20 -2 -14 3 -29 1 -32 -4 -12 -20 -80 -41 -112 -36 -18 2 -35 1 -37
-3 -3 -4 -30 -14 -60 -21 -31 -7 -53 -17 -50 -22 3 -5 -11 -7 -30 -5 -27 3
-41 -1 -59 -18 -21 -22 -64 -41 -80 -37 -4 1 -12 -9 -17 -23 -5 -14 -16 -25
-25 -25 -8 0 -15 -5 -15 -10 0 -6 -11 -15 -25 -20 -16 -6 -23 -15 -19 -24 4
-10 -2 -16 -18 -18 -18 -2 -23 -9 -23 -31 1 -32 -25 -43 -82 -34 -28 5 -33 3
-25 -5 16 -16 15 -28 -3 -28 -9 0 -19 8 -22 18 -7 18 -22 32 -36 32 -5 0 -5
-4 -2 -10 4 -6 -7 -10 -27 -9 -30 1 -31 2 -8 8 l25 7 -34 18 c-28 15 -35 16
-43 4 -6 -9 -8 0 -5 27 2 23 -2 49 -10 61 -13 21 -6 87 17 154 5 14 21 65 35
113 20 67 30 87 41 83 11 -4 13 0 8 19 -5 20 -2 25 14 25 15 0 18 5 15 24 -3
13 7 47 21 78 14 30 26 62 26 70 0 9 15 45 34 82 19 37 37 84 39 104 3 20 10
38 16 40 6 2 11 8 11 14 0 5 10 18 22 28 13 10 22 29 23 46 0 19 5 29 15 29
11 0 14 9 12 29 -3 26 -1 28 22 22 19 -5 26 -2 31 14 3 11 12 20 19 20 8 0 19
6 25 14 10 11 8 16 -5 24 -11 6 -15 16 -10 27 5 14 9 15 21 5 12 -10 15 -9 15
7 0 22 45 73 64 73 6 0 17 9 24 20 7 12 17 18 22 15 6 -3 10 0 10 7 0 7 9 19
20 26 12 7 20 8 20 2 0 -5 5 -10 11 -10 6 0 8 8 5 18 -6 18 24 57 131 169 31
33 54 50 58 43 5 -8 12 -7 24 4 13 12 20 13 29 4 9 -9 12 -9 12 0 0 7 -4 12
-10 12 -5 0 -10 5 -10 10 0 6 6 10 13 10 7 0 18 14 24 30 6 17 18 30 27 30 14
0 20 12 17 33 0 4 6 7 14 7 15 0 21 25 8 33 -5 2 -2 2 5 0 7 -1 25 5 39 15 22
14 60 18 71 7 8 -7 -20 -55 -33 -55 -8 0 -15 -4 -15 -10 0 -5 7 -7 15 -4 27
11 16 -4 -20 -26 -19 -12 -35 -26 -35 -32 0 -6 6 -6 15 2 12 10 15 10 15 -4 0
-10 -9 -16 -25 -16 -14 0 -25 -4 -25 -10 0 -5 7 -10 16 -10 12 0 11 -6 -8 -32
-13 -18 -21 -33 -19 -33 5 0 -26 -50 -49 -79 -23 -29 -64 -66 -72 -66 -5 0 -8
-6 -8 -14 0 -7 -17 -26 -37 -42 -21 -15 -41 -32 -44 -36 -3 -5 -13 -6 -22 -2
-12 4 -17 1 -17 -12 0 -16 2 -17 10 -4 7 10 10 11 10 2 0 -7 -11 -17 -24 -22
-13 -5 -26 -15 -29 -22 -4 -8 -6 -7 -6 5 -1 9 -6 17 -12 17 -5 0 -8 -4 -5 -9
10 -15 -5 -40 -20 -34 -8 3 -14 -1 -14 -9 0 -8 -11 -21 -25 -28 -13 -7 -27
-21 -31 -32 -3 -10 -10 -18 -15 -18 -5 0 -9 -7 -9 -16 0 -10 6 -14 18 -10 65
19 70 19 65 -8 -3 -14 -14 -28 -26 -32 -20 -6 -20 -7 -2 -20 17 -13 112 -11
159 3 20 5 20 6 0 21 -16 12 -16 14 -1 9 11 -4 38 7 72 28 58 37 65 40 65 26
0 -6 -13 -18 -30 -28 -17 -9 -30 -21 -30 -25 0 -14 27 -9 40 7 7 9 21 14 30
13 9 -2 25 3 34 11 14 12 19 12 25 2 6 -8 14 2 26 31 11 27 19 38 23 28 3 -8
10 -18 15 -22 15 -9 36 2 31 16 -5 14 38 35 69 34 9 -1 17 -2 17 -3 0 -15 -25
-65 -32 -65 -6 0 -7 -7 -4 -15 3 -9 -1 -18 -9 -21 -24 -10 -17 -24 11 -24 21
0 24 3 19 21 -5 14 -3 19 3 15 6 -3 23 5 38 19 15 14 30 22 33 19 3 -4 0 -9
-6 -11 -7 -3 -13 -11 -13 -18 0 -7 -6 -15 -12 -18 -9 -3 -8 -7 4 -12 18 -7 53
18 44 33 -2 4 11 12 30 18 l34 11 -20 -33 c-14 -22 -17 -35 -10 -39 12 -7 32
15 61 66 15 26 16 26 27 8 10 -16 9 -19 -3 -19 -8 0 -15 -9 -15 -20 0 -11 5
-20 10 -20 6 0 10 7 10 15 0 8 4 15 10 15 5 0 8 -13 6 -30 -2 -16 0 -27 5 -25
4 3 12 -2 18 -12 8 -16 11 -15 28 6 17 20 21 22 26 8 4 -11 2 -14 -9 -10 -18
7 -19 -11 -1 -25 10 -9 17 0 31 42 10 30 15 59 12 65 -4 6 -3 11 2 11 5 0 17
17 28 38 10 20 21 39 24 42 3 3 21 35 40 72 19 37 39 66 44 65 6 -1 12 9 14
23 2 14 10 30 19 37 9 7 13 19 10 27 -4 11 -1 13 10 9 12 -5 15 -2 10 10 -4
11 -1 17 8 17 18 0 20 20 3 21 -7 0 1 7 17 14 17 8 24 14 18 15 -7 0 -13 4
-13 10 0 5 7 7 15 4 11 -4 19 3 26 24 8 22 15 29 27 25 12 -5 14 -2 7 13 -20
48 -18 61 10 68 32 8 47 -2 23 -15 -10 -5 -15 -16 -11 -25 7 -18 -16 -104 -28
-104 -5 0 -9 -7 -9 -15 0 -8 5 -15 11 -15 12 0 9 -49 -4 -67 -9 -13 8 -27 23
-18 6 3 10 18 10 31 0 16 5 24 13 22 34 -12 4 -87 -36 -89 -12 0 -16 -3 -9 -6
6 -2 12 -18 12 -35 0 -19 4 -28 13 -25 6 2 12 16 12 30 -1 17 6 29 16 32 17 6
33 54 30 93 -2 12 2 22 8 22 15 0 14 37 -1 43 -7 2 -9 8 -5 13 14 15 27 -20
22 -57 -5 -25 -2 -39 9 -49 10 -7 16 -8 16 -2 0 6 -5 12 -11 14 -9 3 -9 9 -1
25 7 13 9 40 6 67 -7 46 1 57 24 34 10 -10 15 -10 22 2 8 12 12 12 22 2 11
-11 8 -17 -12 -33 l-25 -20 27 7 c18 4 26 2 25 -8 -1 -34 4 -48 19 -48 12 0
15 -9 13 -35 -2 -20 3 -42 11 -52 8 -10 14 -32 12 -49 -2 -25 1 -33 17 -37 15
-4 21 -13 21 -34 0 -16 5 -34 11 -40 8 -8 8 -13 0 -17 -6 -4 -11 -12 -11 -17
0 -6 4 -7 10 -4 6 3 10 -4 10 -17 0 -18 2 -20 10 -8 5 8 13 11 17 6 4 -4 0
-13 -10 -20 -17 -13 -25 -62 -7 -51 5 3 7 12 3 20 -3 8 0 15 7 15 14 0 3 -142
-13 -151 -11 -8 -1 -29 14 -29 6 0 8 4 4 9 -6 11 15 61 25 61 4 0 10 -13 13
-30 4 -17 12 -28 19 -26 7 1 10 1 6 -1 -13 -7 -9 -40 6 -52 11 -9 16 -9 22 0
5 9 11 7 21 -7 13 -17 14 -16 11 20 -2 25 1 40 10 42 7 1 8 0 2 -3 -20 -10 -9
-23 15 -17 27 7 35 -12 14 -33 -8 -8 -8 -13 0 -17 6 -4 11 -2 11 3 0 6 7 11
15 11 9 0 12 -6 9 -15 -7 -18 -4 -18 30 -5 31 12 33 29 6 58 -12 12 -16 22
-10 22 12 0 40 -24 40 -35 0 -3 5 -12 12 -19 10 -11 15 -8 25 12 14 26 8 46
-6 23 -6 -9 -11 -10 -15 -2 -4 6 -2 11 3 11 6 0 11 9 11 20 0 11 5 20 10 20 6
0 10 -6 10 -13 0 -7 9 -13 20 -13 12 0 20 7 20 16 0 12 7 15 28 13 23 -4 27
-1 28 19 1 13 2 34 3 48 1 14 0 39 -4 55 -7 36 -12 81 -14 113 0 13 -5 21 -9
18 -5 -3 -10 16 -11 42 -3 67 -6 91 -14 98 -4 4 -7 20 -7 36 0 16 -6 41 -14
56 -8 15 -14 47 -14 72 0 25 -1 72 -2 106 -1 33 3 87 10 118 10 48 15 57 30
53 21 -5 33 23 19 44 -16 25 -9 72 13 96 l21 23 -2466 0 -2467 0 0 -2508z
m4797 2476 c-3 -8 -6 -5 -6 6 -1 11 2 17 5 13 3 -3 4 -12 1 -19z m78 -5 c-4
-10 -8 -29 -9 -43 -1 -15 -7 -25 -16 -25 -10 0 -15 12 -16 42 -1 36 2 42 20
45 27 5 30 2 21 -19z m681 -20 c-10 -10 -19 5 -10 18 6 11 8 11 12 0 2 -7 1
-15 -2 -18z m-26 7 c0 -5 -4 -10 -10 -10 -5 0 -10 5 -10 10 0 6 5 10 10 10 6
0 10 -4 10 -10z m62 -15 c-2 -14 -9 -25 -14 -25 -6 0 -7 7 -4 16 3 9 6 20 6
25 0 5 4 9 9 9 4 0 6 -11 3 -25z m-776 -13 c-3 -3 -2 -10 3 -16 6 -7 4 -18 -4
-29 -7 -10 -15 -15 -18 -10 -8 14 5 73 15 67 5 -3 7 -9 4 -12z m681 2 c-3 -3
-12 -4 -19 -1 -8 3 -5 6 6 6 11 1 17 -2 13 -5z m53 -4 c0 -5 -2 -10 -4 -10 -3
0 -8 5 -11 10 -3 6 -1 10 4 10 6 0 11 -4 11 -10z m-2012 -28 c-10 -2 -18 -8
-18 -14 0 -6 -2 -9 -5 -6 -12 12 7 37 23 30 16 -6 15 -7 0 -10z m1989 3 c2 -5
-8 -10 -22 -10 -14 0 -25 6 -25 13 0 15 42 13 47 -3z m46 -7 c4 -10 8 -9 16 2
6 8 11 11 11 5 0 -5 -5 -17 -11 -25 -8 -11 -12 -12 -16 -2 -7 17 -23 15 -23
-3 0 -8 5 -15 12 -15 6 0 9 -2 6 -5 -8 -8 -38 6 -38 16 0 12 22 38 32 39 3 0
9 -6 11 -12z m47 -15 c0 -19 -3 -24 -10 -17 -6 6 -8 18 -4 27 9 24 14 21 14
-10z m-933 -5 c-3 -8 -6 -5 -6 6 -1 11 2 17 5 13 3 -3 4 -12 1 -19z m780 16
c-3 -3 -12 -4 -19 -1 -8 3 -5 6 6 6 11 1 17 -2 13 -5z m-577 -12 c0 -15 -11
-21 -27 -15 -12 5 -12 7 -1 14 17 11 28 11 28 1z m635 -14 c4 -13 7 -26 6 -31
-1 -7 30 -3 67 9 6 2 12 -1 12 -6 0 -5 -10 -10 -22 -12 -15 -2 -22 -11 -23
-28 -1 -14 2 -28 6 -31 15 -9 -17 -43 -35 -36 -21 8 -21 27 2 27 16 1 15 2 -2
15 -10 8 -23 12 -27 9 -5 -3 -9 0 -9 6 0 7 8 9 19 5 11 -3 22 -1 26 5 3 5 -1
10 -9 10 -9 0 -16 5 -16 11 0 5 -4 7 -10 4 -5 -3 -10 1 -10 10 0 10 5 14 13
10 6 -4 4 0 -7 9 -10 8 -15 19 -11 25 10 17 22 13 30 -11z m-2006 -24 c3 -16
1 -17 -13 -5 -19 16 -21 34 -3 29 6 -3 14 -13 16 -24z m888 -6 c-3 -7 -5 -2
-5 12 0 14 2 19 5 13 2 -7 2 -19 0 -25z m423 -2 c0 -8 -4 -18 -10 -21 -5 -3
-10 3 -10 14 0 12 5 21 10 21 6 0 10 -6 10 -14z m620 -28 c0 -31 3 -39 10 -28
5 8 12 12 15 9 9 -10 -6 -39 -20 -39 -8 0 -15 -10 -18 -22 -2 -13 -4 10 -5 50
0 40 3 72 8 72 6 0 10 -19 10 -42z m30 17 c0 -8 -4 -15 -10 -15 -5 0 -10 7
-10 15 0 8 5 15 10 15 6 0 10 -7 10 -15z m-1977 -16 c8 -29 -3 -51 -20 -45 -8
3 -19 6 -24 6 -5 0 -9 7 -9 16 0 10 6 14 15 10 18 -7 20 5 3 22 -9 9 -7 12 9
12 13 0 23 -8 26 -21z m937 -29 c4 0 6 -9 3 -20 -7 -25 -25 -27 -21 -2 1 9 -1
23 -6 30 -4 7 -4 21 0 30 6 14 9 12 12 -10 2 -16 7 -28 12 -28z m1207 28 c-3
-8 -6 -5 -6 6 -1 11 2 17 5 13 3 -3 4 -12 1 -19z m-8 -48 c0 -9 -5 -6 -11 8
-6 12 -15 22 -20 22 -4 0 -8 8 -8 18 0 14 4 12 20 -8 11 -14 19 -32 19 -40z
m-1944 41 c3 -5 1 -12 -5 -16 -5 -3 -10 1 -10 9 0 18 6 21 15 7z m-1215 -35
c0 -3 -4 -8 -10 -11 -5 -3 -10 -1 -10 4 0 6 5 11 10 11 6 0 10 -2 10 -4z
m2337 -18 c-3 -8 -6 -5 -6 6 -1 11 2 17 5 13 3 -3 4 -12 1 -19z m683 -12 c0
-16 -27 -29 -42 -20 -7 5 -4 12 7 21 24 17 35 17 35 -1z m120 -11 c0 -19 -12
-25 -27 -14 -19 16 -16 28 7 26 11 -1 20 -6 20 -12z m53 -28 c9 -23 17 -49 17
-58 0 -9 3 -19 7 -23 8 -8 43 -96 43 -108 0 -5 -4 -8 -9 -8 -5 0 -15 22 -22
50 -7 27 -15 47 -18 44 -6 -6 -7 -12 -9 -57 -1 -15 -11 -35 -22 -44 -19 -17
-27 -43 -14 -43 4 0 13 8 20 18 12 15 13 15 14 -9 0 -15 -6 -32 -14 -38 -23
-19 -53 32 -38 62 14 27 9 90 -7 95 -14 5 -15 42 -1 42 6 0 10 -4 10 -10 0 -5
8 -10 18 -10 10 0 13 3 6 8 -16 11 -45 73 -38 83 3 5 10 9 15 9 6 0 7 -5 3
-11 -3 -6 -2 -14 3 -18 5 -3 16 -22 26 -41 12 -25 17 -29 17 -15 0 11 -7 31
-16 43 -8 12 -13 26 -9 31 3 5 1 12 -5 16 -5 3 -10 13 -10 21 0 27 15 14 33
-29z m15 18 c-3 -3 -9 2 -12 12 -6 14 -5 15 5 6 7 -7 10 -15 7 -18z m-1968 5
c0 -5 -4 -10 -9 -10 -6 0 -13 5 -16 10 -3 6 1 10 9 10 9 0 16 -4 16 -10z m731
-3 c-1 -12 -15 -9 -19 4 -3 6 1 10 8 8 6 -3 11 -8 11 -12z m-2151 -22 c0 -14
-4 -25 -9 -25 -4 0 -6 11 -3 25 2 14 6 25 8 25 2 0 4 -11 4 -25z m2296 0 c4
-14 4 -29 0 -32 -3 -4 -6 3 -6 13 0 11 -5 25 -12 32 -9 9 -9 12 0 12 6 0 14
-11 18 -25z m-1001 -4 c-3 -6 -11 -11 -16 -11 -5 0 -4 6 3 14 14 16 24 13 13
-3z m-485 -11 c-6 -11 -13 -20 -16 -20 -2 0 0 9 6 20 6 11 13 20 16 20 2 0 0
-9 -6 -20z m557 5 c0 -8 -7 -15 -14 -15 -8 0 -12 4 -9 9 4 5 0 12 -6 14 -7 3
-4 6 8 6 12 1 21 -5 21 -14z m184 6 c-8 -5 -20 -7 -28 -4 -21 8 -15 13 15 13
20 0 23 -3 13 -9z m489 5 c0 -3 -4 -8 -10 -11 -5 -3 -10 -1 -10 4 0 6 5 11 10
11 6 0 10 -2 10 -4z m224 -5 c9 -13 -4 -42 -16 -35 -5 3 -5 11 2 19 8 10 7 14
-2 18 -9 4 -9 6 -1 6 6 1 14 -3 17 -8z m946 -1 c11 -7 4 -10 -25 -9 -31 0 -36
2 -20 9 26 11 28 11 45 0z m-1040 -21 c0 -5 -4 -9 -10 -9 -5 0 -10 7 -10 16 0
8 5 12 10 9 6 -3 10 -10 10 -16z m1140 -23 c0 -26 -6 -18 -14 19 -5 22 -4 26
4 15 5 -8 10 -24 10 -34z m-1870 24 c0 -12 -28 -25 -36 -17 -9 9 6 27 22 27 8
0 14 -5 14 -10z m518 -10 c-14 -22 -24 -19 -15 5 4 8 11 15 17 15 6 0 6 -7 -2
-20z m162 10 c0 -5 -4 -10 -10 -10 -5 0 -10 5 -10 10 0 6 5 10 10 10 6 0 10
-4 10 -10z m-565 -14 c17 7 20 -14 4 -36 -8 -11 -12 -12 -16 -2 -8 21 -32 13
-39 -13 -7 -29 -30 -28 -27 1 2 16 10 53 12 61 1 1 12 -2 26 -7 14 -5 32 -7
40 -4z m-1415 -6 c0 -5 -4 -10 -10 -10 -5 0 -10 5 -10 10 0 6 5 10 10 10 6 0
10 -4 10 -10z m1847 -12 c-3 -8 -6 -5 -6 6 -1 11 2 17 5 13 3 -3 4 -12 1 -19z
m1236 2 c3 -11 2 -20 -3 -20 -4 0 -10 9 -13 20 -3 11 -2 20 3 20 4 0 10 -9 13
-20z m-3243 0 c0 -5 -2 -10 -4 -10 -3 0 -8 5 -11 10 -3 6 -1 10 4 10 6 0 11
-4 11 -10z m2245 0 c3 -5 1 -10 -4 -10 -6 0 -11 5 -11 10 0 6 2 10 4 10 3 0 8
-4 11 -10z m-375 -15 c0 -8 -4 -15 -10 -15 -5 0 -10 7 -10 15 0 8 5 15 10 15
6 0 10 -7 10 -15z m326 7 c6 -4 11 -14 11 -22 0 -8 4 -24 9 -34 6 -16 4 -18
-10 -13 -10 4 -26 7 -37 7 -10 0 -19 5 -19 11 0 6 7 9 15 6 19 -8 31 11 16 26
-21 21 -10 36 15 19z m104 -12 c0 -11 -4 -20 -9 -20 -5 0 -7 9 -4 20 3 11 7
20 9 20 2 0 4 -9 4 -20z m-905 -9 c-3 -6 -11 -11 -16 -11 -5 0 -4 6 3 14 14
16 24 13 13 -3z m595 -3 c0 -18 -2 -20 -9 -8 -6 8 -7 18 -5 22 9 14 14 9 14
-14z m144 0 c-9 -32 -27 -60 -19 -32 4 15 0 24 -12 29 -17 7 -17 8 2 15 32 14
37 11 29 -12z m206 -17 c0 -22 5 -43 10 -46 6 -3 10 -16 10 -28 -1 -19 -3 -18
-14 8 -17 41 -27 105 -15 105 5 0 9 -18 9 -39z m-770 -12 c0 -10 -4 -19 -10
-19 -5 0 -10 -13 -10 -30 0 -22 -4 -28 -15 -24 -11 5 -14 0 -13 -17 2 -18 -1
-23 -14 -21 -10 2 -18 -2 -18 -8 0 -5 -4 -10 -10 -10 -13 0 -13 33 -1 46 5 5
11 23 13 39 2 22 8 29 21 27 11 -2 17 4 17 17 0 19 18 32 33 24 4 -2 7 -13 7
-24z m-610 11 c0 -5 -5 -10 -11 -10 -5 0 -7 5 -4 10 3 6 8 10 11 10 2 0 4 -4
4 -10z m1577 -12 c-3 -8 -6 -5 -6 6 -1 11 2 17 5 13 3 -3 4 -12 1 -19z m-1776
-11 c-10 -9 -11 -8 -5 6 3 10 9 15 12 12 3 -3 0 -11 -7 -18z m1014 -27 c-9
-10 -14 -24 -10 -29 3 -6 1 -11 -4 -11 -15 0 -14 12 6 51 9 18 18 28 21 21 2
-7 -4 -22 -13 -32z m185 30 c0 -5 -5 -10 -11 -10 -5 0 -7 5 -4 10 3 6 8 10 11
10 2 0 4 -4 4 -10z m1280 0 c0 -5 -7 -10 -15 -10 -8 0 -15 5 -15 10 0 6 7 10
15 10 8 0 15 -4 15 -10z m-4350 -14 c0 -2 -8 -10 -17 -17 -16 -13 -17 -12 -4
4 13 16 21 21 21 13z m1090 -14 c0 -11 -3 -12 -14 -3 -11 9 -15 9 -19 -1 -2
-7 -8 -10 -12 -6 -12 11 4 27 25 25 11 -1 20 -8 20 -15z m130 3 c0 -2 -10 -10
-22 -16 -21 -11 -22 -11 -9 4 13 16 31 23 31 12z m-240 -15 c0 -5 -5 -10 -11
-10 -5 0 -7 5 -4 10 3 6 8 10 11 10 2 0 4 -4 4 -10z m3539 -34 c-9 -8 -10 -7
-5 7 3 10 7 24 7 30 1 7 3 4 6 -7 3 -10 -1 -23 -8 -30z m-1453 7 c-10 -10 -19
5 -10 18 6 11 8 11 12 0 2 -7 1 -15 -2 -18z m-2086 -3 c0 -5 -5 -10 -11 -10
-5 0 -7 5 -4 10 3 6 8 10 11 10 2 0 4 -4 4 -10z m2330 0 c0 -5 -5 -10 -11 -10
-5 0 -7 5 -4 10 3 6 8 10 11 10 2 0 4 -4 4 -10z m40 0 c0 -5 -4 -10 -10 -10
-5 0 -10 5 -10 10 0 6 5 10 10 10 6 0 10 -4 10 -10z m-3410 -13 c0 -2 -12 -14
-27 -28 -24 -22 -24 -13 0 19 8 11 27 17 27 9z m3327 -29 c-3 -7 -5 -2 -5 12
0 14 2 19 5 13 2 -7 2 -19 0 -25z m1070 10 c-3 -8 -6 -5 -6 6 -1 11 2 17 5 13
3 -3 4 -12 1 -19z m1247 1 c-3 -5 -10 -7 -15 -3 -5 3 -7 10 -3 15 3 5 10 7 15
3 5 -3 7 -10 3 -15z m-2724 7 c0 -2 -7 -9 -15 -16 -13 -11 -14 -10 -9 4 5 14
24 23 24 12z m1690 -16 c0 -5 -5 -10 -11 -10 -5 0 -7 5 -4 10 3 6 8 10 11 10
2 0 4 -4 4 -10z m-210 -36 c0 -8 -4 -12 -10 -9 -5 3 -10 13 -10 21 0 8 5 12
10 9 6 -3 10 -13 10 -21z m-4495 -32 c-44 -42 -44 -38 0 11 17 18 32 32 35 30
2 -2 -14 -20 -35 -41z m2765 38 c0 -5 -2 -10 -4 -10 -3 0 -8 5 -11 10 -3 6 -1
10 4 10 6 0 11 -4 11 -10z m160 -130 c-35 -72 -67 -130 -71 -130 -4 0 15 44
41 98 26 53 56 114 65 135 10 21 20 35 23 32 3 -3 -23 -64 -58 -135z m1881 33
c13 -81 16 -122 8 -134 -3 -6 -9 27 -13 73 -4 46 -10 94 -13 108 -3 14 -3 22
1 18 4 -3 12 -32 17 -65z m704 57 c-3 -5 -10 -10 -16 -10 -5 0 -9 5 -9 10 0 6
7 10 16 10 8 0 12 -4 9 -10z m-835 -48 c0 -15 -2 -15 -10 -2 -13 20 -13 33 0
25 6 -3 10 -14 10 -23z m1045 18 c3 -5 1 -10 -4 -10 -6 0 -11 5 -11 10 0 6 2
10 4 10 3 0 8 -4 11 -10z m35 -10 c0 -5 -5 -10 -11 -10 -5 0 -7 5 -4 10 3 6 8
10 11 10 2 0 4 -4 4 -10z m47 -55 c8 -22 -6 -33 -17 -15 -13 20 -12 30 0 30 6
0 13 -7 17 -15z m-4090 -27 c-3 -8 -6 -5 -6 6 -1 11 2 17 5 13 3 -3 4 -12 1
-19z m4118 -8 c3 -5 1 -10 -4 -10 -6 0 -11 5 -11 10 0 6 2 10 4 10 3 0 8 -4
11 -10z m-4475 -20 c0 -5 -2 -10 -4 -10 -3 0 -8 5 -11 10 -3 6 -1 10 4 10 6 0
11 -4 11 -10z m1050 0 c0 -5 -4 -10 -10 -10 -5 0 -10 5 -10 10 0 6 5 10 10 10
6 0 10 -4 10 -10z m2377 -22 c-3 -8 -6 -5 -6 6 -1 11 2 17 5 13 3 -3 4 -12 1
-19z m-3470 -4 c-3 -3 -12 -4 -19 -1 -8 3 -5 6 6 6 11 1 17 -2 13 -5z m1163
-8 c0 -3 -4 -8 -10 -11 -5 -3 -10 -1 -10 4 0 6 5 11 10 11 6 0 10 -2 10 -4z
m2287 -63 c-3 -10 -5 -4 -5 12 0 17 2 24 5 18 2 -7 2 -21 0 -30z m30 -15 c-2
-13 -4 -5 -4 17 -1 22 1 32 4 23 2 -10 2 -28 0 -40z m-2472 32 c-3 -5 -10 -10
-16 -10 -5 0 -9 5 -9 10 0 6 7 10 16 10 8 0 12 -4 9 -10z m-531 -16 c3 -8 2
-12 -4 -9 -6 3 -10 10 -10 16 0 14 7 11 14 -7z m976 -48 c0 -39 -6 -30 -13 19
-4 27 -3 35 3 25 5 -8 10 -28 10 -44z m2064 5 c2 -22 -1 -38 -5 -35 -5 3 -8
23 -7 45 2 49 8 44 12 -10z m-1999 -1 c-4 -12 -9 -19 -12 -17 -3 3 -2 15 2 27
4 12 9 19 12 17 3 -3 2 -15 -2 -27z m-1355 -57 c-11 -17 -11 -17 -6 0 3 10 7
26 7 35 1 15 2 15 6 0 2 -10 -1 -25 -7 -35z m2345 27 c3 -5 1 -10 -4 -10 -6 0
-11 5 -11 10 0 6 2 10 4 10 3 0 8 -4 11 -10z m640 -20 c-3 -5 -12 -10 -18 -10
-7 0 -6 4 3 10 19 12 23 12 15 0z m314 -22 l-1 -33 -8 30 c-6 24 -8 17 -9 -32
0 -35 -5 -63 -11 -63 -5 0 -10 -18 -10 -41 0 -45 -15 -45 -25 1 -5 22 -1 41
15 67 17 29 18 38 8 45 -9 5 -10 10 -2 16 6 4 13 15 17 25 11 29 27 19 26 -15z
m-939 2 c0 -11 -2 -20 -4 -20 -2 0 -6 9 -9 20 -3 11 -1 20 4 20 5 0 9 -9 9
-20z m-2373 -32 c-3 -8 -6 -5 -6 6 -1 11 2 17 5 13 3 -3 4 -12 1 -19z m2243
-33 c19 -23 8 -26 -19 -4 -16 13 -18 19 -8 19 8 0 20 -7 27 -15z m993 0 c-3
-9 -8 -14 -10 -11 -3 3 -2 9 2 15 9 16 15 13 8 -4z m74 -17 c-3 -8 -6 -5 -6 6
-1 11 2 17 5 13 3 -3 4 -12 1 -19z m-225 -40 c-7 -7 -12 -8 -12 -2 0 14 12 26
19 19 2 -3 -1 -11 -7 -17z m275 0 c-3 -8 -6 -5 -6 6 -1 11 2 17 5 13 3 -3 4
-12 1 -19z m-164 -12 c4 -10 1 -13 -9 -9 -15 6 -19 23 -5 23 5 0 11 -7 14 -14z
m-3223 -10 c0 -3 -4 -8 -10 -11 -5 -3 -10 -1 -10 4 0 6 5 11 10 11 6 0 10 -2
10 -4z m3107 -28 c-3 -8 -6 -5 -6 6 -1 11 2 17 5 13 3 -3 4 -12 1 -19z m53 2
c0 -5 -2 -10 -4 -10 -3 0 -8 5 -11 10 -3 6 -1 10 4 10 6 0 11 -4 11 -10z m97
-12 c-3 -8 -6 -5 -6 6 -1 11 2 17 5 13 3 -3 4 -12 1 -19z m-167 -2 c0 -3 -4
-8 -10 -11 -5 -3 -10 -1 -10 4 0 6 5 11 10 11 6 0 10 -2 10 -4z m193 -46 c-3
-11 -9 -20 -14 -20 -10 0 -12 24 -2 33 13 13 21 7 16 -13z m97 -46 c0 -8 -4
-14 -10 -14 -5 0 -10 9 -10 21 0 11 5 17 10 14 6 -3 10 -13 10 -21z m75 -403
c3 -5 1 -12 -5 -16 -5 -3 -10 1 -10 9 0 18 6 21 15 7z m-35 -11 c0 -5 -5 -10
-11 -10 -5 0 -7 5 -4 10 3 6 8 10 11 10 2 0 4 -4 4 -10z m-2270 -30 c0 -5 -2
-10 -4 -10 -3 0 -8 5 -11 10 -3 6 -1 10 4 10 6 0 11 -4 11 -10z m2085 -20 c-3
-5 -12 -10 -18 -10 -7 0 -6 4 3 10 19 12 23 12 15 0z m-2045 -40 c0 -5 -4 -10
-9 -10 -6 0 -13 5 -16 10 -3 6 1 10 9 10 9 0 16 -4 16 -10z m127 -40 c0 -16
-4 -30 -8 -30 -8 0 -18 47 -11 55 12 12 19 3 19 -25z m108 -30 c3 -5 1 -10 -4
-10 -6 0 -11 5 -11 10 0 6 2 10 4 10 3 0 8 -4 11 -10z m125 -4 c0 -8 -4 -17
-9 -21 -12 -7 -24 12 -16 25 9 15 25 12 25 -4z m-43 -32 c10 -21 9 -26 -5 -31
-9 -4 -22 -14 -29 -22 -11 -14 -12 -13 -13 5 0 12 7 25 16 28 10 4 14 14 11
26 -7 28 6 25 20 -6z m-57 6 c0 -5 -7 -10 -16 -10 -8 0 -12 5 -9 10 3 6 10 10
16 10 5 0 9 -4 9 -10z m-1060 -34 c0 -3 -4 -8 -10 -11 -5 -3 -10 -1 -10 4 0 6
5 11 10 11 6 0 10 -2 10 -4z m15 -25 c-3 -6 -11 -11 -16 -11 -5 0 -4 6 3 14
14 16 24 13 13 -3z m-482 3 c3 -3 2 -14 -3 -23 -5 -9 -11 -25 -15 -35 -9 -31
-17 -11 -10 28 7 35 15 43 28 30z m432 -15 c11 -16 1 -19 -13 -3 -7 8 -8 14
-3 14 5 0 13 -5 16 -11z m508 -13 c20 -16 21 -26 4 -50 -11 -15 -17 -17 -35
-7 -34 18 -28 67 8 70 3 0 13 -6 23 -13z m67 -1 c0 -8 -4 -15 -10 -15 -5 0
-10 7 -10 15 0 8 5 15 10 15 6 0 10 -7 10 -15z m-590 -15 c8 -5 12 -12 8 -15
-10 -10 -49 5 -43 16 8 11 16 11 35 -1z m3023 -17 c-2 -13 3 -23 10 -23 7 -1
4 -7 -6 -15 -19 -14 -46 -10 -59 9 -6 8 -11 7 -17 -3 -6 -9 -11 -10 -15 -2 -4
6 -2 11 3 11 6 0 11 8 11 18 0 27 10 33 45 30 24 -2 30 -7 28 -25z m-1733 7
c0 -5 -4 -10 -10 -10 -5 0 -10 5 -10 10 0 6 5 10 10 10 6 0 10 -4 10 -10z
m-50 -30 c0 -5 -7 -10 -15 -10 -8 0 -15 5 -15 10 0 6 7 10 15 10 8 0 15 -4 15
-10z m-1245 -10 c-3 -5 -10 -10 -16 -10 -5 0 -9 5 -9 10 0 6 7 10 16 10 8 0
12 -4 9 -10z m1361 -7 c18 -24 17 -33 -1 -33 -8 0 -15 4 -15 9 0 5 -3 16 -6
25 -8 21 6 20 22 -1z m-1331 -42 c-6 -5 -25 10 -25 20 0 5 6 4 14 -3 8 -7 12
-15 11 -17z m338 -27 c-3 -8 -9 -11 -14 -8 -5 3 -7 10 -4 15 4 5 -1 12 -9 15
-9 3 -16 10 -16 15 0 5 11 2 24 -7 14 -9 22 -22 19 -30z m2657 36 c0 -5 -4
-10 -10 -10 -5 0 -10 5 -10 10 0 6 5 10 10 10 6 0 10 -4 10 -10z m-1700 -33
c11 -5 9 -6 -4 -4 -11 1 -21 9 -23 17 -3 10 -2 11 4 4 4 -6 15 -14 23 -17z
m-1280 3 c0 -5 -2 -10 -4 -10 -3 0 -8 5 -11 10 -3 6 -1 10 4 10 6 0 11 -4 11
-10z m257 4 c-3 -3 -12 -4 -19 -1 -8 3 -5 6 6 6 11 1 17 -2 13 -5z m-7 -74 c0
-5 -4 -10 -10 -10 -5 0 -10 5 -10 10 0 6 5 10 10 10 6 0 10 -4 10 -10z m770
-52 c0 -4 -9 0 -20 9 -11 10 -20 24 -20 33 0 10 7 7 20 -10 11 -14 20 -28 20
-32z m307 36 c-3 -3 -12 -4 -19 -1 -8 3 -5 6 6 6 11 1 17 -2 13 -5z m1346 -37
c20 -10 37 -22 37 -27 0 -4 9 -6 20 -3 16 4 23 -2 35 -30 8 -20 19 -39 25 -42
6 -4 8 -11 5 -16 -4 -5 -3 -9 2 -9 4 0 14 -4 22 -9 13 -8 13 -12 1 -26 -8 -9
-15 -33 -16 -53 -1 -21 -8 -50 -15 -67 -7 -16 -11 -37 -10 -45 2 -8 0 -12 -5
-8 -4 5 -13 -1 -20 -11 -8 -11 -37 -24 -66 -31 -66 -15 -119 -38 -135 -59 -10
-14 -13 -14 -33 4 -16 14 -23 16 -29 7 -4 -7 -23 -15 -43 -18 -27 -5 -37 -2
-41 10 -4 9 -1 16 5 16 9 0 9 3 0 12 -9 9 -15 9 -24 0 -7 -7 -9 -12 -4 -12 4
0 1 -7 -8 -15 -8 -8 -25 -15 -38 -15 -18 0 -20 2 -8 10 8 5 11 10 6 10 -5 0
-3 7 5 16 10 13 10 17 -2 25 -28 18 -49 10 -50 -18 l-2 -28 -4 27 c-3 18 -11
28 -26 30 -15 2 -21 9 -19 21 2 9 -2 17 -8 17 -5 0 -10 -4 -10 -10 0 -5 -4
-10 -10 -10 -5 0 -10 9 -10 20 0 11 -4 20 -10 20 -5 0 -10 -4 -10 -10 0 -5 -4
-10 -8 -10 -7 0 -9 37 -3 46 1 1 18 -2 39 -8 131 -33 157 -37 172 -23 11 10
20 11 33 4 13 -8 17 -6 17 6 0 12 6 15 19 10 11 -3 22 -1 26 5 3 5 1 10 -4 10
-24 0 15 40 45 46 39 7 87 51 80 71 -4 9 -1 22 6 30 6 8 13 43 14 76 3 98 4
103 12 91 4 -5 24 -18 45 -27z m-2703 13 c0 -5 -7 -10 -15 -10 -8 0 -15 5 -15
10 0 6 7 10 15 10 8 0 15 -4 15 -10z m2433 -70 c6 -23 -16 -45 -38 -36 -15 5
-21 37 -8 49 13 14 41 6 46 -13z m130 -77 c-14 -13 -31 -23 -37 -23 -6 0 -3 5
7 11 9 5 17 20 17 32 0 18 2 19 10 7 8 -12 10 -12 10 5 0 17 2 17 10 5 7 -11
2 -21 -17 -37z m-1598 -13 c3 -5 -1 -10 -9 -10 -9 0 -16 5 -16 10 0 6 4 10 9
10 6 0 13 -4 16 -10z m42 -16 c-3 -3 -12 -4 -19 -1 -8 3 -5 6 6 6 11 1 17 -2
13 -5z m1559 -29 c-5 -20 -11 -25 -26 -20 -14 5 -20 2 -20 -10 0 -24 -23 -13
-25 13 -2 22 20 38 30 22 8 -14 35 0 35 18 0 8 3 13 6 9 4 -3 3 -18 0 -32z
m-1641 -17 c-2 -29 -38 -31 -49 -2 -3 8 -2 12 4 9 5 -3 15 1 22 9 17 18 25 13
23 -16z m1672 8 c-16 -18 -31 -8 -16 10 6 7 15 11 20 8 5 -3 3 -11 -4 -18z
m-117 -51 c0 -14 -2 -25 -4 -25 -2 0 -6 11 -8 25 -3 14 -1 25 3 25 5 0 9 -11
9 -25z m409 -102 c2 -34 -37 -31 -50 4 -9 24 -7 30 13 46 23 19 23 19 29 -4 4
-13 7 -34 8 -46z m-119 -58 c0 -8 -4 -15 -9 -15 -13 0 -22 16 -14 24 11 11 23
6 23 -9z m104 -27 c7 -5 5 -8 -6 -8 -22 0 -32 17 -22 38 6 15 8 15 12 -3 2
-11 9 -23 16 -27z m-227 20 c-2 -7 0 -25 4 -40 9 -34 4 -35 -23 -5 -13 15 -21
18 -24 10 -6 -15 -24 -17 -24 -4 0 5 15 18 33 29 39 25 40 25 34 10z m164 -48
c24 0 5 -16 -21 -18 -34 -3 -40 14 -12 34 14 10 18 10 20 -2 2 -8 8 -14 13
-14z m-622 -6 c6 4 11 1 11 -8 0 -8 7 -21 15 -30 18 -18 24 -50 10 -54 -5 -1
-11 9 -13 23 -2 14 -10 25 -18 25 -8 0 -14 7 -14 15 0 8 -4 15 -10 15 -5 0
-10 8 -10 18 0 13 2 14 9 3 5 -7 14 -10 20 -7z m351 0 c0 -17 -22 -14 -28 4
-2 7 3 12 12 12 9 0 16 -7 16 -16z m-283 -25 c-3 -12 0 -19 9 -19 8 0 14 -4
14 -10 0 -16 -37 -11 -44 6 -12 30 -7 54 10 47 9 -3 14 -13 11 -24z m228 12
c-3 -6 -14 -11 -23 -11 -15 1 -15 2 2 15 21 16 32 13 21 -4z m76 -18 c-12 -20
-14 -14 -5 12 4 9 9 14 11 11 3 -2 0 -13 -6 -23z m215 -17 c7 -29 -1 -46 -23
-46 -11 0 -14 6 -9 25 4 15 2 25 -4 25 -6 0 -8 5 -5 10 11 18 35 10 41 -14z
m-413 7 c-7 -2 -19 -2 -25 0 -7 3 -2 5 12 5 14 0 19 -2 13 -5z m154 1 c-3 -3
-12 -4 -19 -1 -8 3 -5 6 6 6 11 1 17 -2 13 -5z m203 -39 c0 -25 5 -45 10 -45
6 0 10 -7 10 -15 0 -31 -19 -14 -25 23 -12 74 -12 82 -4 82 5 0 9 -20 9 -45z
m-296 9 c9 -8 16 -23 16 -31 0 -14 -3 -14 -20 2 -11 10 -20 24 -20 32 0 17 5
17 24 -3z m216 6 c0 -5 -15 -10 -32 -10 -25 0 -29 3 -18 10 20 13 50 13 50 0z
m38 -47 c-16 -15 -18 -15 -24 0 -3 9 -3 25 0 34 6 15 8 15 24 0 15 -16 15 -18
0 -34z m22 -27 c0 -8 -4 -18 -10 -21 -5 -3 -10 3 -10 14 0 12 5 21 10 21 6 0
10 -6 10 -14z m-3973 -938 c-3 -8 -6 -5 -6 6 -1 11 2 17 5 13 3 -3 4 -12 1
-19z m-17 -45 c0 -16 4 -22 11 -17 9 5 10 -1 5 -20 -4 -16 -1 -37 9 -55 8 -17
12 -37 9 -46 -4 -10 2 -24 16 -37 15 -14 18 -23 10 -28 -9 -5 -9 -22 0 -69 6
-34 8 -65 5 -70 -3 -5 -6 -44 -7 -86 -1 -58 -5 -78 -17 -85 -14 -8 -14 -9 2
-10 17 0 23 -26 9 -46 -4 -6 -20 -10 -37 -9 -25 1 -31 6 -33 28 -2 18 1 27 11
27 23 0 42 29 29 42 -9 9 -12 7 -12 -8 -1 -18 -1 -19 -12 0 -10 17 -12 16 -24
-14 -8 -18 -14 -38 -13 -44 3 -27 -2 -47 -11 -41 -10 6 -9 65 1 65 8 0 4 84
-5 98 -4 6 -2 13 3 16 11 7 14 118 2 125 -5 4 -2 39 6 80 10 49 12 76 5 80
-10 6 -15 52 -13 119 1 22 6 32 17 32 9 0 12 5 8 13 -5 8 -2 8 9 -2 9 -7 17
-24 17 -38z m3107 -548 c7 -21 -2 -28 -37 -31 -23 -2 -30 2 -30 16 0 30 56 42
67 15z m-137 -31 c0 -8 -5 -12 -10 -9 -6 4 -8 11 -5 16 9 14 15 11 15 -7z
m-303 -11 c-11 -10 -58 -13 -52 -2 4 5 18 9 32 9 15 0 23 -3 20 -7z m-2617
-21 c0 -14 -11 -21 -26 -15 -21 8 -17 23 6 23 11 0 20 -4 20 -8z m2685 -2 c-3
-5 -12 -7 -20 -3 -21 7 -19 13 6 13 11 0 18 -4 14 -10z m94 -26 c2 -2 2 -7 -2
-10 -9 -9 -67 6 -67 18 0 9 58 2 69 -8z m-299 -48 c0 -3 -4 -8 -10 -11 -5 -3
-10 -1 -10 4 0 6 5 11 10 11 6 0 10 -2 10 -4z m47 -31 c10 -8 27 -21 38 -29
19 -15 19 -15 -10 -15 -16 0 -41 6 -55 15 -23 14 -23 14 -2 9 13 -4 22 -2 22
4 0 6 -7 11 -16 11 -8 0 -12 5 -9 10 8 13 12 13 32 -5z m-162 -5 c-3 -5 -16
-10 -28 -9 -20 1 -20 2 3 9 14 4 26 8 28 9 2 1 0 -3 -3 -9z m-48 -44 c4 -7 26
-18 48 -24 37 -11 35 -11 -25 -6 -36 3 -66 7 -68 8 -1 2 0 11 4 20 7 19 30 21
41 2z m-62 -36 c3 -5 1 -10 -4 -10 -6 0 -11 5 -11 10 0 6 2 10 4 10 3 0 8 -4
11 -10z m39 -61 c-6 -11 -24 -2 -24 11 0 5 7 7 15 4 8 -4 12 -10 9 -15z m86
-19 c0 -5 -4 -10 -10 -10 -5 0 -10 5 -10 10 0 6 5 10 10 10 6 0 10 -4 10 -10z
m777 -12 c-3 -8 -6 -5 -6 6 -1 11 2 17 5 13 3 -3 4 -12 1 -19z m-697 -32 c0
-3 -4 -8 -10 -11 -5 -3 -10 -1 -10 4 0 6 5 11 10 11 6 0 10 -2 10 -4z m-1983
-68 c-3 -8 -6 -5 -6 6 -1 11 2 17 5 13 3 -3 4 -12 1 -19z m2493 1 c0 -5 -4 -9
-10 -9 -5 0 -10 7 -10 16 0 8 5 12 10 9 6 -3 10 -10 10 -16z m55 -9 c3 -5 -1
-10 -9 -10 -9 0 -16 5 -16 10 0 6 4 10 9 10 6 0 13 -4 16 -10z m-2555 -20 c0
-5 -7 -10 -15 -10 -8 0 -15 5 -15 10 0 6 7 10 15 10 8 0 15 -4 15 -10z m50
-15 c0 -8 -4 -15 -10 -15 -5 0 -10 7 -10 15 0 8 5 15 10 15 6 0 10 -7 10 -15z
m2546 -37 c8 -12 -24 -40 -37 -32 -5 3 -9 14 -9 25 0 21 34 27 46 7z m-3566
-47 c0 -12 11 -23 30 -30 27 -9 30 -14 30 -51 0 -25 -4 -39 -10 -35 -5 3 -10
21 -10 39 0 29 -4 34 -30 40 -24 4 -30 11 -30 31 0 14 5 25 10 25 6 0 10 -9
10 -19z m320 -26 c12 11 20 13 25 5 10 -15 -14 -40 -38 -40 -11 0 -17 3 -14 6
3 4 2 15 -3 25 -6 9 -7 26 -2 36 5 14 8 10 10 -15 3 -32 4 -33 22 -17z m-70 8
c0 -22 -2 -25 -10 -13 -13 20 -13 40 0 40 6 0 10 -12 10 -27z m-170 -13 c0 -5
-4 -10 -10 -10 -5 0 -10 5 -10 10 0 6 5 10 10 10 6 0 10 -4 10 -10z m3755 1
c3 -5 1 -12 -5 -16 -5 -3 -10 1 -10 9 0 18 6 21 15 7z m-115 -31 c0 -10 3 -26
7 -36 6 -16 7 -16 14 2 7 18 8 17 8 -3 1 -25 -44 -79 -53 -65 -9 15 6 132 15
126 5 -3 9 -14 9 -24z m-3800 10 c0 -5 -4 -10 -9 -10 -6 0 -13 5 -16 10 -3 6
1 10 9 10 9 0 16 -4 16 -10z m80 0 c0 -5 -4 -10 -10 -10 -5 0 -10 5 -10 10 0
6 5 10 10 10 6 0 10 -4 10 -10z m220 -10 c0 -5 -8 -10 -17 -10 -15 0 -16 2 -3
10 19 12 20 12 20 0z m214 -11 c-7 -12 -54 -12 -54 0 0 11 30 19 47 13 7 -2
10 -8 7 -13z m-256 -13 c15 -8 48 -18 75 -21 41 -5 47 -9 47 -30 0 -13 -4 -27
-10 -30 -11 -7 -14 -78 -4 -88 4 -3 19 0 35 8 34 18 62 19 57 3 -5 -14 -108
-47 -143 -46 -17 0 -17 1 -2 5 16 4 25 42 10 44 -55 5 -64 17 -24 32 28 10 31
15 25 37 -3 14 -7 31 -7 38 -1 18 -17 15 -17 -3 0 -9 -7 -18 -15 -21 -10 -4
-13 -13 -10 -25 8 -24 -13 -25 -32 -1 -9 10 -16 13 -19 6 -7 -17 -53 -4 -65
17 -14 27 -3 42 22 29 12 -7 19 -7 19 -1 0 6 -9 15 -21 22 -24 12 -16 25 21
32 14 2 27 5 28 6 2 0 16 -5 30 -13z m3622 4 c0 -5 -4 -10 -10 -10 -5 0 -10 5
-10 10 0 6 5 10 10 10 6 0 10 -4 10 -10z m-4712 -42 c-7 -19 -35 -21 -41 -3
-5 11 0 15 19 15 16 0 24 -5 22 -12z m4549 -15 c-3 -3 -11 -2 -17 2 -9 6 -9
10 1 16 14 8 27 -7 16 -18z m43 -21 c0 -26 -11 -34 -27 -21 -10 9 -10 15 -2
25 16 19 29 17 29 -4z m-4424 -39 c-11 -11 -19 6 -11 24 8 17 8 17 12 0 3 -10
2 -21 -1 -24z m1072 25 c18 -18 15 -28 -8 -28 -13 0 -20 7 -20 20 0 23 10 26
28 8z m2632 -24 c0 -2 -9 -4 -21 -4 -11 0 -18 4 -14 10 5 8 35 3 35 -6z
m-2360 -80 c0 -2 -7 -4 -15 -4 -8 0 -15 4 -15 10 0 5 7 7 15 4 8 -4 15 -8 15
-10z m2915 6 c3 -5 1 -10 -4 -10 -6 0 -11 5 -11 10 0 6 2 10 4 10 3 0 8 -4 11
-10z m-3175 -20 c0 -5 -6 -10 -14 -10 -8 0 -18 5 -21 10 -3 6 3 10 14 10 12 0
21 -4 21 -10z m70 0 c0 -5 -7 -10 -15 -10 -8 0 -15 5 -15 10 0 6 7 10 15 10 8
0 15 -4 15 -10z m238 -15 c6 -14 15 -25 19 -26 5 0 17 -3 28 -6 11 -3 37 -6
57 -7 48 -3 58 -13 24 -22 -27 -7 -31 -28 -5 -30 28 -1 67 -27 73 -48 5 -19 7
-19 26 12 17 27 23 31 39 22 11 -5 27 -7 35 -4 21 8 20 -6 -1 -22 -17 -13 -17
-13 0 -14 34 0 97 -25 97 -38 0 -7 14 -21 30 -30 17 -9 28 -23 25 -30 -3 -7 0
-10 5 -7 11 7 54 -32 63 -57 4 -11 0 -21 -11 -27 -15 -9 -15 -10 5 -11 12 0
24 6 26 13 3 6 6 2 6 -10 1 -18 7 -23 28 -23 14 0 24 -3 20 -6 -10 -11 -166
16 -214 37 -24 10 -53 19 -63 19 -10 0 -25 7 -34 15 -8 8 -26 15 -40 15 -14 0
-28 5 -31 10 -3 6 -14 10 -24 10 -10 0 -24 7 -31 15 -6 8 -15 14 -18 13 -9 -2
-41 10 -75 28 -16 7 -37 14 -48 14 -10 0 -19 5 -19 10 0 14 33 13 48 -2 9 -9
12 -9 12 1 0 8 -8 20 -17 27 -17 12 -17 13 -1 14 9 0 19 4 22 9 3 4 -6 6 -19
3 -21 -4 -25 0 -25 19 0 13 -4 30 -9 38 -7 11 -10 9 -16 -8 -8 -27 -31 -27
-38 0 -5 17 -11 20 -31 17 -14 -3 -26 -1 -26 4 0 5 -22 6 -50 2 -32 -4 -50 -3
-50 4 0 15 91 26 100 12 7 -12 80 -11 80 2 0 4 -4 8 -10 8 -5 0 -10 5 -10 11
0 5 5 7 10 4 6 -4 10 5 10 19 0 33 13 33 28 1z m-153 -5 c-3 -5 -13 -10 -21
-10 -8 0 -14 5 -14 10 0 6 9 10 21 10 11 0 17 -4 14 -10z m230 0 c-3 -5 -11
-10 -16 -10 -6 0 -7 5 -4 10 3 6 11 10 16 10 6 0 7 -4 4 -10z m-348 -32 c-3
-8 -6 -5 -6 6 -1 11 2 17 5 13 3 -3 4 -12 1 -19z m498 -8 c3 -5 1 -10 -4 -10
-6 0 -11 5 -11 10 0 6 2 10 4 10 3 0 8 -4 11 -10z m-15 -45 c0 -8 -4 -15 -10
-15 -5 0 -10 7 -10 15 0 8 5 15 10 15 6 0 10 -7 10 -15z m-380 -15 c0 -5 -4
-10 -10 -10 -5 0 -10 5 -10 10 0 6 5 10 10 10 6 0 10 -4 10 -10z m60 -20 c0
-5 -5 -10 -11 -10 -5 0 -7 5 -4 10 3 6 8 10 11 10 2 0 4 -4 4 -10z m47 -16
c-3 -4 -14 -3 -24 0 -15 6 -15 8 -3 16 16 10 39 -4 27 -16z m53 -3 c0 -6 -4
-13 -10 -16 -5 -3 -10 1 -10 9 0 9 5 16 10 16 6 0 10 -4 10 -9z m2070 -684 c0
-4 -9 -3 -20 3 -11 6 -20 15 -20 20 0 6 9 5 20 -2 11 -7 20 -16 20 -21z m1045
-17 c3 -5 1 -10 -4 -10 -6 0 -11 5 -11 10 0 6 2 10 4 10 3 0 8 -4 11 -10z
m745 -57 c0 -25 -2 -44 -4 -42 -10 9 -14 89 -5 89 5 0 9 -21 9 -47z m-1852
-15 c7 -7 12 -19 12 -29 0 -9 11 -28 25 -43 14 -15 25 -28 25 -29 0 -2 -12 -4
-26 -5 -33 -3 -73 27 -74 55 0 12 -4 25 -10 28 -5 3 -10 13 -10 21 0 17 41 19
58 2z m1321 -327 c9 -6 10 -11 2 -15 -13 -8 -31 1 -31 15 0 11 11 11 29 0z
m61 -71 c-37 -29 -50 -24 -16 6 15 14 31 22 35 19 3 -4 -5 -15 -19 -25z
m-1514 -17 c-10 -10 -19 5 -10 18 6 11 8 11 12 0 2 -7 1 -15 -2 -18z m-2 -19
c19 -19 19 -16 1 -61 -12 -27 -12 -38 -4 -44 17 -10 2 -60 -22 -77 -11 -8 -19
-22 -17 -32 2 -11 -1 -19 -7 -20 -6 0 -11 41 -12 100 -2 60 1 100 7 100 6 0
10 8 10 18 0 34 19 41 44 16z m1226 -34 c0 -5 -2 -10 -4 -10 -3 0 -8 5 -11 10
-3 6 -1 10 4 10 6 0 11 -4 11 -10z m-1475 -20 c3 -5 -1 -10 -10 -10 -9 0 -13
5 -10 10 3 6 8 10 10 10 2 0 7 -4 10 -10z m1435 -4 c0 -3 -4 -8 -10 -11 -5 -3
-10 -1 -10 4 0 6 5 11 10 11 6 0 10 -2 10 -4z m97 -2 c-3 -3 -12 -4 -19 -1 -8
3 -5 6 6 6 11 1 17 -2 13 -5z m213 -9 c-15 -18 -26 -19 -33 -2 -3 8 4 14 20
15 22 2 24 0 13 -13z m-330 -127 c0 -7 -6 -20 -13 -29 -11 -15 -15 -15 -32 -3
-18 14 -18 14 3 14 13 0 22 6 22 15 0 8 5 15 10 15 6 0 10 -6 10 -12z m-986
-47 c9 -15 -23 -36 -36 -23 -5 5 -7 15 -4 21 9 13 33 14 40 2z m-184 -56 c0
-8 5 -15 11 -15 6 0 17 -6 25 -14 7 -8 19 -16 26 -18 25 -9 -5 -28 -43 -28
-29 0 -41 5 -46 18 -4 9 -12 21 -20 25 -7 4 -13 13 -13 18 0 6 4 8 9 5 5 -3
14 1 21 9 16 19 30 19 30 0z m1595 -14 c6 -11 -60 -9 -71 2 -4 4 9 7 29 7 20
0 38 -4 42 -9z m-1750 -11 c3 -6 -1 -13 -9 -16 -22 -8 -68 4 -61 16 8 13 62
13 70 0z m1200 -10 c3 -5 1 -10 -4 -10 -6 0 -11 5 -11 10 0 6 2 10 4 10 3 0 8
-4 11 -10z m-570 -10 c-3 -5 -15 -10 -25 -10 -10 0 -26 -7 -34 -16 -9 -8 -16
-11 -16 -6 0 14 42 41 63 41 10 1 15 -3 12 -9z m975 0 c13 -9 13 -10 0 -9 -8
0 -24 4 -35 9 l-20 9 20 0 c11 0 27 -4 35 -9z"/>
<path d="M5090 4446 c0 -2 7 -7 16 -10 8 -3 12 -2 9 4 -6 10 -25 14 -25 6z"/>
<path d="M1470 3184 c0 -8 5 -12 10 -9 6 4 8 11 5 16 -9 14 -15 11 -15 -7z"/>
<path d="M1511 3064 c0 -11 3 -14 6 -6 3 7 2 16 -1 19 -3 4 -6 -2 -5 -13z"/>
<path d="M1200 1944 c0 -22 2 -25 15 -14 8 7 15 19 15 26 0 8 -7 14 -15 14
-10 0 -15 -10 -15 -26z"/>
<path d="M1757 1680 c-3 -11 -1 -20 4 -20 5 0 9 2 9 4 0 2 3 11 6 20 3 9 2 16
-4 16 -5 0 -12 -9 -15 -20z"/>
<path d="M4960 6989 c0 -5 9 -9 20 -9 11 0 20 2 20 4 0 2 -9 6 -20 9 -11 3
-20 1 -20 -4z"/>
<path d="M5330 6989 c0 -5 5 -7 10 -4 6 3 10 8 10 11 0 2 -4 4 -10 4 -5 0 -10
-5 -10 -11z"/>
<path d="M5320 6958 c0 -16 9 -28 33 -47 15 -12 17 -11 17 3 0 10 -4 14 -10
11 -5 -3 -10 -1 -10 5 0 6 -7 18 -15 26 -12 12 -15 12 -15 2z"/>
<path d="M5390 6940 c0 -5 7 -10 16 -10 8 0 12 5 9 10 -3 6 -10 10 -16 10 -5
0 -9 -4 -9 -10z"/>
<path d="M5287 6923 c-4 -3 2 -13 14 -21 26 -18 35 -10 11 11 -10 10 -22 14
-25 10z"/>
<path d="M5382 6897 c-8 -10 -6 -16 9 -26 27 -16 35 -8 16 19 -11 16 -16 18
-25 7z"/>
<path d="M5230 6880 c0 -5 5 -10 10 -10 6 0 10 5 10 10 0 6 -4 10 -10 10 -5 0
-10 -4 -10 -10z"/>
<path d="M5340 6880 c0 -5 5 -10 10 -10 6 0 10 5 10 10 0 6 -4 10 -10 10 -5 0
-10 -4 -10 -10z"/>
<path d="M5348 6805 c2 -25 8 -45 13 -45 10 0 12 50 3 74 -12 30 -19 16 -16
-29z"/>
<path d="M4880 6799 c0 -5 5 -7 10 -4 6 3 10 8 10 11 0 2 -4 4 -10 4 -5 0 -10
-5 -10 -11z"/>
<path d="M5321 6774 c0 -11 3 -14 6 -6 3 7 2 16 -1 19 -3 4 -6 -2 -5 -13z"/>
<path d="M4863 6695 c0 -27 2 -38 4 -22 2 15 2 37 0 50 -2 12 -4 0 -4 -28z"/>
<path d="M3430 6720 c-13 -8 -12 -10 3 -10 9 0 17 5 17 10 0 12 -1 12 -20 0z"/>
<path d="M3390 6680 c0 -5 5 -10 10 -10 6 0 10 5 10 10 0 6 -4 10 -10 10 -5 0
-10 -4 -10 -10z"/>
<path d="M5355 6680 c-3 -5 -1 -10 4 -10 6 0 11 5 11 10 0 6 -2 10 -4 10 -3 0
-8 -4 -11 -10z"/>
<path d="M4970 6637 c0 -7 7 -22 15 -33 13 -17 14 -16 4 14 -11 33 -19 41 -19
19z"/>
<path d="M5390 6620 c0 -11 4 -20 9 -20 5 0 7 9 4 20 -3 11 -7 20 -9 20 -2 0
-4 -9 -4 -20z"/>
<path d="M5000 6575 c0 -5 5 -17 10 -25 5 -8 10 -10 10 -5 0 6 -5 17 -10 25
-5 8 -10 11 -10 5z"/>
<path d="M5190 6530 c0 -5 5 -10 11 -10 5 0 7 5 4 10 -3 6 -8 10 -11 10 -2 0
-4 -4 -4 -10z"/>
<path d="M4860 6521 c0 -17 18 -21 24 -6 3 9 0 15 -9 15 -8 0 -15 -4 -15 -9z"/>
<path d="M5031 6510 c0 -18 27 -79 28 -64 1 7 -6 27 -14 45 -8 19 -14 27 -14
19z"/>
<path d="M4330 6500 c0 -5 5 -10 10 -10 6 0 10 5 10 10 0 6 -4 10 -10 10 -5 0
-10 -4 -10 -10z"/>
<path d="M5191 6464 c0 -11 3 -14 6 -6 3 7 2 16 -1 19 -3 4 -6 -2 -5 -13z"/>
<path d="M5449 6463 c0 -10 -3 -30 -5 -45 -3 -16 0 -28 6 -28 5 0 10 20 10 45
0 42 -9 65 -11 28z"/>
<path d="M4317 6463 c-4 -3 -7 -11 -7 -17 0 -6 5 -5 12 2 6 6 9 14 7 17 -3 3
-9 2 -12 -2z"/>
<path d="M4347 6450 c3 -11 9 -20 14 -20 11 0 11 3 3 24 -9 23 -23 20 -17 -4z"/>
<path d="M5400 6430 c0 -5 5 -10 10 -10 6 0 10 5 10 10 0 6 -4 10 -10 10 -5 0
-10 -4 -10 -10z"/>
<path d="M5065 6415 c4 -11 12 -36 18 -55 7 -22 12 -29 14 -18 2 9 -5 34 -17
55 -12 21 -18 29 -15 18z"/>
<path d="M3061 6381 c-20 -16 -30 -31 -24 -34 6 -4 23 9 37 28 32 42 31 43
-13 6z"/>
<path d="M4280 6389 c0 -5 5 -7 10 -4 6 3 10 8 10 11 0 2 -4 4 -10 4 -5 0 -10
-5 -10 -11z"/>
<path d="M3102 6374 c-7 -8 -8 -14 -3 -14 10 0 25 19 20 25 -2 1 -10 -3 -17
-11z"/>
<path d="M4276 6331 c-4 -7 -5 -15 -2 -18 9 -9 19 4 14 18 -4 11 -6 11 -12 0z"/>
<path d="M5449 6340 c-5 -23 -4 -92 2 -96 10 -6 17 79 8 91 -5 5 -9 7 -10 5z"/>
<path d="M5101 6310 c0 -8 4 -22 9 -30 12 -18 12 -2 0 25 -6 13 -9 15 -9 5z"/>
<path d="M4225 6290 c-3 -5 1 -10 10 -10 9 0 13 5 10 10 -3 6 -8 10 -10 10 -2
0 -7 -4 -10 -10z"/>
<path d="M5041 6274 c0 -11 3 -14 6 -6 3 7 2 16 -1 19 -3 4 -6 -2 -5 -13z"/>
<path d="M5128 6260 c-4 -19 -10 -57 -13 -85 -6 -48 -6 -49 10 -28 12 17 15
40 13 85 -3 55 -4 59 -10 28z"/>
<path d="M4185 6270 c3 -5 8 -10 11 -10 2 0 4 5 4 10 0 6 -5 10 -11 10 -5 0
-7 -4 -4 -10z"/>
<path d="M4177 6233 c-8 -13 -5 -103 3 -98 4 3 10 18 13 34 5 25 10 28 33 23
19 -3 25 -1 20 7 -4 6 -12 11 -18 11 -6 0 -19 7 -29 16 -9 8 -19 12 -22 7z"/>
<path d="M2883 6215 c-7 -8 -13 -24 -12 -37 0 -15 3 -18 6 -8 3 8 15 25 26 38
15 16 17 22 6 22 -8 -1 -20 -7 -26 -15z"/>
<path d="M5430 6217 c0 -10 8 -17 18 -17 9 0 13 4 7 8 -5 4 -13 11 -17 16 -5
5 -8 2 -8 -7z"/>
<path d="M3975 6200 c-3 -5 -1 -10 4 -10 6 0 11 5 11 10 0 6 -2 10 -4 10 -3 0
-8 -4 -11 -10z"/>
<path d="M3905 6151 c-3 -12 -11 -21 -16 -21 -6 0 -7 -4 -4 -10 11 -18 23 -11
28 18 6 33 1 41 -8 13z"/>
<path d="M2940 6151 c0 -6 5 -13 10 -16 6 -3 10 1 10 9 0 9 -4 16 -10 16 -5 0
-10 -4 -10 -9z"/>
<path d="M3500 6150 c0 -5 5 -10 10 -10 6 0 10 5 10 10 0 6 -4 10 -10 10 -5 0
-10 -4 -10 -10z"/>
<path d="M5141 6134 c0 -11 3 -14 6 -6 3 7 2 16 -1 19 -3 4 -6 -2 -5 -13z"/>
<path d="M5445 6140 c3 -5 11 -10 16 -10 6 0 7 5 4 10 -3 6 -11 10 -16 10 -6
0 -7 -4 -4 -10z"/>
<path d="M2865 6110 c3 -5 8 -10 11 -10 2 0 4 5 4 10 0 6 -5 10 -11 10 -5 0
-7 -4 -4 -10z"/>
<path d="M3410 6110 c0 -5 5 -10 10 -10 6 0 10 5 10 10 0 6 -4 10 -10 10 -5 0
-10 -4 -10 -10z"/>
<path d="M5152 6065 c0 -16 2 -22 5 -12 2 9 2 23 0 30 -3 6 -5 -1 -5 -18z"/>
<path d="M2900 6070 c0 -5 5 -10 10 -10 6 0 10 5 10 10 0 6 -4 10 -10 10 -5 0
-10 -4 -10 -10z"/>
<path d="M3425 6070 c3 -5 8 -10 11 -10 2 0 4 5 4 10 0 6 -5 10 -11 10 -5 0
-7 -4 -4 -10z"/>
<path d="M3690 6070 c0 -5 5 -10 11 -10 5 0 7 5 4 10 -3 6 -8 10 -11 10 -2 0
-4 -4 -4 -10z"/>
<path d="M4485 6060 c-3 -5 -1 -10 4 -10 6 0 11 5 11 10 0 6 -2 10 -4 10 -3 0
-8 -4 -11 -10z"/>
<path d="M3275 6050 c-3 -5 -1 -10 4 -10 6 0 11 5 11 10 0 6 -2 10 -4 10 -3 0
-8 -4 -11 -10z"/>
<path d="M3921 6046 c-10 -12 -8 -13 8 -9 12 3 21 9 21 14 0 14 -16 11 -29 -5z"/>
<path d="M3200 6039 c0 -5 5 -7 10 -4 6 3 10 8 10 11 0 2 -4 4 -10 4 -5 0 -10
-5 -10 -11z"/>
<path d="M3400 6040 c0 -5 5 -10 11 -10 5 0 7 5 4 10 -3 6 -8 10 -11 10 -2 0
-4 -4 -4 -10z"/>
<path d="M3355 6029 c-4 -6 -5 -12 -2 -15 2 -3 7 2 10 11 7 17 1 20 -8 4z"/>
<path d="M3490 6025 c0 -8 2 -15 4 -15 2 0 6 7 10 15 3 8 1 15 -4 15 -6 0 -10
-7 -10 -15z"/>
<path d="M5132 6000 c0 -14 2 -19 5 -12 2 6 2 18 0 25 -3 6 -5 1 -5 -13z"/>
<path d="M4537 5974 c-3 -5 1 -15 9 -22 16 -14 18 -5 5 17 -5 7 -11 9 -14 5z"/>
<path d="M4880 5976 c0 -9 30 -14 35 -6 4 6 -3 10 -14 10 -12 0 -21 -2 -21 -4z"/>
<path d="M4545 5900 c3 -5 8 -10 11 -10 2 0 4 5 4 10 0 6 -5 10 -11 10 -5 0
-7 -4 -4 -10z"/>
<path d="M4782 5876 c7 -8 15 -12 17 -11 5 6 -10 25 -20 25 -5 0 -4 -6 3 -14z"/>
<path d="M5450 5873 c0 -14 -2 -15 -9 -4 -6 9 -8 5 -8 -15 l0 -28 18 23 c21
26 24 41 9 41 -5 0 -10 -8 -10 -17z"/>
<path d="M6960 5874 c0 -14 3 -15 18 -3 9 7 19 15 21 16 2 2 -5 3 -17 3 -14 0
-22 -6 -22 -16z"/>
<path d="M5410 5719 c0 -5 5 -7 10 -4 6 3 10 8 10 11 0 2 -4 4 -10 4 -5 0 -10
-5 -10 -11z"/>
<path d="M3265 5666 c-16 -11 -16 -14 -2 -19 8 -3 21 0 27 8 15 19 -3 27 -25
11z"/>
<path d="M3177 5645 c-16 -12 -16 -13 6 -17 26 -5 66 6 51 14 -25 14 -41 15
-57 3z"/>
<path d="M2560 5629 c0 -18 44 -39 60 -29 17 10 3 31 -15 23 -9 -3 -22 0 -30
7 -12 10 -15 10 -15 -1z"/>
<path d="M3000 5600 c-39 -15 -42 -18 -22 -24 29 -10 54 -1 70 24 14 24 11 24
-48 0z"/>
<path d="M3310 5606 c-21 -8 -49 -10 -72 -6 -27 5 -38 4 -38 -5 0 -18 86 -38
167 -39 40 -1 75 -4 78 -8 4 -4 -3 -4 -16 -1 -14 4 -20 2 -16 -4 12 -19 167
-50 167 -33 0 10 -48 22 -60 15 -6 -3 -9 5 -8 19 2 24 3 24 38 9 19 -8 41 -16
49 -17 7 -2 24 -13 37 -25 13 -12 28 -19 34 -16 6 4 17 0 23 -8 21 -26 127
-52 112 -27 -3 6 -18 10 -33 10 l-27 0 30 18 c37 23 73 33 80 22 3 -4 -5 -11
-18 -14 l-22 -7 23 -11 c13 -6 21 -17 18 -24 -3 -9 9 -18 34 -25 46 -14 60 -7
42 22 -7 11 -10 28 -7 38 4 13 -6 23 -35 40 -22 12 -38 27 -35 32 4 5 -7 9
-24 9 -16 0 -33 5 -36 10 -3 6 -13 10 -21 10 -20 0 -17 -20 4 -21 14 0 14 -2
-3 -9 -12 -5 -15 -9 -6 -9 11 -1 12 -4 4 -12 -7 -7 -21 -4 -47 10 -20 12 -50
21 -66 21 -17 0 -30 5 -30 13 0 16 -71 38 -85 27 -6 -5 -36 -7 -66 -4 -30 3
-72 7 -94 9 -22 3 -56 -1 -75 -9z m610 -156 c0 -5 -4 -10 -10 -10 -5 0 -10 5
-10 10 0 6 5 10 10 10 6 0 10 -4 10 -10z"/>
<path d="M2676 5602 c-3 -5 5 -17 16 -26 l21 -19 -22 -16 c-21 -16 -21 -17 19
-13 22 2 37 8 34 13 -3 5 13 9 35 9 30 0 41 4 41 15 0 8 -6 15 -14 15 -8 0
-23 3 -33 7 -16 6 -17 5 -3 -11 13 -17 12 -18 -5 -15 -11 2 -25 15 -31 27 -8
16 -13 19 -16 10 -4 -11 -8 -11 -20 0 -9 7 -19 9 -22 4z"/>
<path d="M3713 5593 c9 -2 23 -2 30 0 6 3 -1 5 -18 5 -16 0 -22 -2 -12 -5z"/>
<path d="M3053 5570 c1 -18 2 -18 19 -3 23 20 23 23 -1 23 -13 0 -19 -6 -18
-20z"/>
<path d="M3105 5580 c3 -5 8 -10 11 -10 2 0 4 5 4 10 0 6 -5 10 -11 10 -5 0
-7 -4 -4 -10z"/>
<path d="M3138 5583 c7 -3 16 -2 19 1 4 3 -2 6 -13 5 -11 0 -14 -3 -6 -6z"/>
<path d="M3665 5291 c-6 -11 9 -23 19 -14 9 9 7 23 -3 23 -6 0 -12 -4 -16 -9z"/>
<path d="M3790 5260 c0 -5 5 -10 10 -10 6 0 10 5 10 10 0 6 -4 10 -10 10 -5 0
-10 -4 -10 -10z"/>
<path d="M3975 5260 c-3 -5 -3 -10 2 -11 4 -1 -3 -5 -17 -9 -22 -7 -23 -8 -4
-9 11 -1 29 8 39 19 16 17 16 20 2 20 -9 0 -19 -4 -22 -10z"/>
<path d="M5310 5190 c0 -5 7 -10 15 -10 8 0 15 5 15 10 0 6 -7 10 -15 10 -8 0
-15 -4 -15 -10z"/>
<path d="M2391 5164 c0 -11 3 -14 6 -6 3 7 2 16 -1 19 -3 4 -6 -2 -5 -13z"/>
<path d="M4120 5170 c0 -5 -7 -10 -16 -10 -8 0 -13 -4 -9 -10 4 -6 15 -5 30 2
13 6 22 15 19 19 -7 12 -24 11 -24 -1z"/>
<path d="M2535 5041 c-8 -13 24 -29 45 -24 10 3 21 0 24 -6 4 -6 14 -11 22
-11 12 0 12 4 2 23 -7 12 -14 23 -15 25 0 2 -11 -3 -23 -10 -18 -10 -24 -10
-27 0 -5 14 -19 16 -28 3z"/>
<path d="M3540 5010 c0 -5 5 -10 10 -10 6 0 10 5 10 10 0 6 -4 10 -10 10 -5 0
-10 -4 -10 -10z"/>
<path d="M2910 4960 c0 -5 5 -10 10 -10 6 0 10 5 10 10 0 6 -4 10 -10 10 -5 0
-10 -4 -10 -10z"/>
<path d="M4232 4938 c-16 -16 -15 -28 3 -28 8 0 15 9 15 20 0 23 -2 24 -18 8z"/>
<path d="M2708 4923 c7 -3 16 -2 19 1 4 3 -2 6 -13 5 -11 0 -14 -3 -6 -6z"/>
<path d="M2720 4861 c0 -25 6 -27 13 -6 4 8 2 17 -3 20 -6 4 -10 -3 -10 -14z"/>
<path d="M2475 4840 c-3 -5 -1 -10 4 -10 6 0 11 5 11 10 0 6 -2 10 -4 10 -3 0
-8 -4 -11 -10z"/>
<path d="M2840 4835 c0 -9 5 -15 11 -13 6 2 11 8 11 13 0 5 -5 11 -11 13 -6 2
-11 -4 -11 -13z"/>
<path d="M2900 4830 c0 -5 4 -10 9 -10 5 0 11 -10 15 -22 5 -19 8 -20 15 -8 7
10 4 20 -9 32 -22 20 -30 23 -30 8z"/>
<path d="M2440 4794 c0 -8 5 -12 10 -9 6 3 10 10 10 16 0 5 -4 9 -10 9 -5 0
-10 -7 -10 -16z"/>
<path d="M2975 4780 c3 -5 8 -10 11 -10 2 0 4 5 4 10 0 6 -5 10 -11 10 -5 0
-7 -4 -4 -10z"/>
<path d="M3025 4740 c-11 -17 5 -32 21 -19 7 6 11 15 8 20 -7 12 -21 11 -29
-1z"/>
<path d="M4152 4738 c-18 -18 -15 -40 6 -36 9 2 18 13 20 26 4 24 -7 29 -26
10z"/>
<path d="M3060 4715 c-7 -9 -10 -18 -6 -22 9 -10 58 16 51 27 -9 15 -31 12
-45 -5z"/>
<path d="M3633 4690 c2 -24 22 -27 31 -4 9 23 8 24 -13 24 -14 0 -19 -6 -18
-20z"/>
<path d="M3093 4683 c-38 -15 -42 -29 -13 -38 26 -8 59 15 51 36 -5 14 -10 14
-38 2z"/>
<path d="M3517 4689 c7 -7 15 -10 18 -7 3 3 -2 9 -12 12 -14 6 -15 5 -6 -5z"/>
<path d="M3572 4680 c-37 -23 -152 -38 -152 -21 0 6 -18 11 -45 11 -25 0 -45
-5 -45 -10 0 -6 15 -8 39 -4 24 4 41 2 45 -5 17 -26 199 -4 210 26 8 20 -20
22 -52 3z"/>
<path d="M2810 4660 c0 -11 5 -20 10 -20 6 0 10 9 10 20 0 11 -4 20 -10 20 -5
0 -10 -9 -10 -20z"/>
<path d="M2850 4640 c0 -22 5 -40 10 -40 6 0 10 18 10 40 0 22 -4 40 -10 40
-5 0 -10 -18 -10 -40z"/>
<path d="M3140 4651 c-10 -19 3 -41 17 -28 8 9 63 -14 57 -24 -3 -5 -1 -9 5
-9 17 0 23 20 10 36 -7 8 -24 14 -38 12 -20 -2 -25 1 -23 15 4 23 -15 22 -28
-2z"/>
<path d="M3209 4656 c8 -9 20 -15 26 -12 7 2 18 -1 24 -7 14 -14 78 -19 86 -7
3 4 -19 13 -48 18 -28 6 -63 14 -77 18 -23 7 -24 6 -11 -10z"/>
<path d="M3360 4640 c0 -5 5 -10 11 -10 5 0 7 5 4 10 -3 6 -8 10 -11 10 -2 0
-4 -4 -4 -10z"/>
<path d="M3041 4614 c0 -11 3 -14 6 -6 3 7 2 16 -1 19 -3 4 -6 -2 -5 -13z"/>
<path d="M3496 4621 c-4 -6 -4 -11 1 -12 4 0 25 -2 46 -4 20 -2 37 0 37 5 0 6
-8 10 -17 10 -10 0 -28 3 -39 6 -12 3 -25 1 -28 -5z"/>
<path d="M2252 4608 c3 -7 13 -15 23 -17 17 -3 17 -2 3 13 -20 19 -31 21 -26
4z"/>
<path d="M3355 4613 c-11 -3 -25 -12 -31 -21 -10 -14 -13 -14 -28 1 -21 20
-26 21 -26 5 0 -7 14 -21 31 -30 23 -14 29 -23 24 -38 -5 -16 -2 -20 14 -20
14 0 19 5 14 15 -3 10 0 15 8 13 8 -2 15 10 19 32 4 29 10 36 35 41 30 7 30 7
-5 7 -19 0 -44 -3 -55 -5z"/>
<path d="M3455 4580 c3 -5 17 -10 31 -10 13 0 24 5 24 10 0 6 -14 10 -31 10
-17 0 -28 -4 -24 -10z"/>
<path d="M3556 4554 c4 -17 2 -29 -7 -35 -19 -12 -32 -11 -24 1 3 6 -1 10 -9
10 -8 0 -17 8 -19 18 -4 16 -5 16 -6 0 -1 -17 27 -58 40 -58 3 0 18 11 33 25
23 21 25 27 14 45 -18 28 -30 25 -22 -6z"/>
<path d="M3207 4531 c-4 -17 -3 -21 5 -13 5 5 8 16 6 23 -3 8 -7 3 -11 -10z"/>
<path d="M2925 4530 c3 -5 8 -10 11 -10 2 0 4 5 4 10 0 6 -5 10 -11 10 -5 0
-7 -4 -4 -10z"/>
<path d="M3380 4505 c0 -8 4 -15 9 -15 5 0 11 7 15 15 3 9 0 15 -9 15 -8 0
-15 -7 -15 -15z"/>
<path d="M3265 4500 c3 -5 8 -10 11 -10 2 0 4 5 4 10 0 6 -5 10 -11 10 -5 0
-7 -4 -4 -10z"/>
<path d="M3325 4490 c4 -6 11 -8 16 -5 14 9 11 15 -7 15 -8 0 -12 -5 -9 -10z"/>
<path d="M3447 4473 c-8 -7 11 -33 23 -33 5 0 6 9 3 20 -5 20 -15 25 -26 13z"/>
<path d="M3510 4439 c0 -5 5 -7 10 -4 6 3 10 8 10 11 0 2 -4 4 -10 4 -5 0 -10
-5 -10 -11z"/>
<path d="M2231 4424 c0 -11 3 -14 6 -6 3 7 2 16 -1 19 -3 4 -6 -2 -5 -13z"/>
<path d="M5276 4175 c-3 -8 -1 -15 4 -15 6 0 10 7 10 15 0 8 -2 15 -4 15 -2 0
-6 -7 -10 -15z"/>
<path d="M2197 4158 c-8 -30 -1 -35 12 -9 6 11 7 22 2 25 -5 3 -11 -4 -14 -16z"/>
<path d="M5201 4164 c0 -11 3 -14 6 -6 3 7 2 16 -1 19 -3 4 -6 -2 -5 -13z"/>
<path d="M4977 4013 c-7 -11 4 -63 13 -63 10 0 10 59 0 65 -5 3 -11 2 -13 -2z"/>
<path d="M5010 4000 c0 -5 5 -10 11 -10 5 0 7 5 4 10 -3 6 -8 10 -11 10 -2 0
-4 -4 -4 -10z"/>
<path d="M5002 3910 c0 -14 2 -19 5 -12 2 6 2 18 0 25 -3 6 -5 1 -5 -13z"/>
<path d="M2210 3896 c0 -9 7 -16 16 -16 9 0 14 5 12 12 -6 18 -28 21 -28 4z"/>
<path d="M2380 3886 c0 -9 30 -14 35 -6 4 6 -3 10 -14 10 -12 0 -21 -2 -21 -4z"/>
<path d="M2355 3810 c-3 -5 -1 -10 4 -10 6 0 11 5 11 10 0 6 -2 10 -4 10 -3 0
-8 -4 -11 -10z"/>
<path d="M2430 3810 c0 -5 11 -10 25 -10 14 0 25 5 25 10 0 6 -11 10 -25 10
-14 0 -25 -4 -25 -10z"/>
<path d="M2317 3789 c4 -13 8 -18 11 -10 2 7 -1 18 -6 23 -8 8 -9 4 -5 -13z"/>
<path d="M2550 3775 c0 -5 5 -17 10 -25 5 -8 10 -10 10 -5 0 6 -5 17 -10 25
-5 8 -10 11 -10 5z"/>
<path d="M2400 3730 c0 -19 3 -21 12 -12 9 9 9 15 0 24 -9 9 -12 7 -12 -12z"/>
<path d="M2143 3723 c-16 -6 -18 -123 -3 -123 6 0 10 27 10 61 0 43 3 58 12
53 7 -4 8 -3 4 4 -4 7 -8 12 -9 11 -1 0 -8 -3 -14 -6z"/>
<path d="M2188 3713 c7 -3 16 -2 19 1 4 3 -2 6 -13 5 -11 0 -14 -3 -6 -6z"/>
<path d="M2175 3670 c-18 -8 -17 -9 8 -9 16 -1 26 3 22 9 -3 6 -7 10 -8 9 -1
0 -11 -4 -22 -9z"/>
<path d="M2240 3650 c0 -5 5 -10 11 -10 5 0 7 5 4 10 -3 6 -8 10 -11 10 -2 0
-4 -4 -4 -10z"/>
<path d="M2415 3644 c-13 -10 -15 -14 -4 -14 20 0 43 16 32 23 -4 3 -17 -1
-28 -9z"/>
<path d="M2568 3643 c7 -3 16 -2 19 1 4 3 -2 6 -13 5 -11 0 -14 -3 -6 -6z"/>
<path d="M2544 3615 c-4 -9 -4 -18 -2 -21 9 -8 39 8 35 19 -6 18 -27 20 -33 2z"/>
<path d="M5091 3533 c-1 -12 -10 -27 -21 -33 -11 -6 -20 -18 -20 -26 0 -8 -4
-13 -9 -10 -5 3 -12 -5 -15 -19 -4 -14 -12 -25 -20 -25 -7 0 -22 -11 -32 -25
-10 -14 -24 -25 -30 -25 -7 0 -32 -20 -57 -45 -45 -44 -77 -57 -77 -32 -1 6
-8 0 -16 -15 -13 -25 -20 -28 -65 -28 -31 0 -48 -4 -44 -10 4 -6 -5 -10 -19
-10 -37 0 -40 -1 -54 -12 -8 -7 -9 -15 -2 -23 6 -8 6 -15 -2 -23 -7 -7 -8 -12
-2 -12 5 0 16 11 24 25 14 22 18 23 40 12 14 -7 26 -23 28 -37 2 -14 8 -29 13
-34 5 -6 9 -18 9 -29 0 -33 34 -14 57 33 12 25 22 41 23 35 0 -5 10 4 21 22
11 18 32 34 48 38 42 9 148 100 166 143 30 69 49 107 60 122 7 9 9 25 4 40 -7
23 -7 24 -8 3z m-338 -378 c-7 -21 -13 -19 -13 6 0 11 4 18 10 14 5 -3 7 -12
3 -20z"/>
<path d="M4345 3423 c-55 -12 -130 -62 -138 -93 -5 -20 -5 -21 19 -5 29 19 60
12 86 -19 9 -11 17 -17 18 -12 0 5 7 3 15 -4 12 -10 16 -9 21 3 3 9 3 21 -1
27 -9 14 47 9 58 -5 4 -6 12 -3 21 8 17 22 101 24 110 2 3 -8 16 -15 29 -15
13 0 28 -5 34 -11 6 -6 16 -8 22 -5 37 23 -22 96 -100 124 -33 11 -150 15
-194 5z"/>
<path d="M2080 3390 c0 -5 5 -10 10 -10 6 0 10 5 10 10 0 6 -4 10 -10 10 -5 0
-10 -4 -10 -10z"/>
<path d="M4040 3386 c0 -17 14 -29 23 -20 8 8 -3 34 -14 34 -5 0 -9 -6 -9 -14z"/>
<path d="M4066 3350 c-15 -5 -16 -9 -7 -14 7 -5 18 -3 24 3 14 14 6 20 -17 11z"/>
<path d="M4120 3319 c0 -5 5 -7 10 -4 6 3 10 8 10 11 0 2 -4 4 -10 4 -5 0 -10
-5 -10 -11z"/>
<path d="M2125 3310 c3 -5 8 -10 11 -10 2 0 4 5 4 10 0 6 -5 10 -11 10 -5 0
-7 -4 -4 -10z"/>
<path d="M4074 3312 c-5 -4 1 -18 13 -31 19 -20 23 -21 23 -7 0 22 -24 46 -36
38z"/>
<path d="M4141 3274 c0 -11 3 -14 6 -6 3 7 2 16 -1 19 -3 4 -6 -2 -5 -13z"/>
<path d="M4215 3280 c-3 -5 1 -10 9 -10 9 0 16 5 16 10 0 6 -4 10 -9 10 -6 0
-13 -4 -16 -10z"/>
<path d="M4540 3175 c0 -8 -8 -15 -17 -16 -11 0 -13 -3 -5 -6 22 -9 13 -29
-20 -44 -28 -12 -33 -19 -34 -51 0 -27 4 -38 17 -41 22 -6 39 11 39 39 0 15
11 27 34 38 34 16 36 25 27 89 -2 14 -41 7 -41 -8z m34 -4 c3 -5 -1 -11 -9
-14 -9 -4 -12 -1 -8 9 6 16 10 17 17 5z"/>
<path d="M4741 3044 c0 -11 3 -14 6 -6 3 7 2 16 -1 19 -3 4 -6 -2 -5 -13z"/>
<path d="M4500 2740 c-12 -8 -9 -10 13 -10 15 0 27 5 27 10 0 13 -20 13 -40 0z"/>
<path d="M4586 2734 c-4 -9 -4 -19 -2 -21 8 -8 26 8 26 23 0 19 -16 18 -24 -2z"/>
<path d="M4105 2670 c-3 -5 -1 -10 4 -10 6 0 11 5 11 10 0 6 -2 10 -4 10 -3 0
-8 -4 -11 -10z"/>
<path d="M4960 2310 c0 -5 5 -10 11 -10 5 0 7 5 4 10 -3 6 -8 10 -11 10 -2 0
-4 -4 -4 -10z"/>
<path d="M3779 2310 c-6 -43 -6 -60 1 -60 12 0 20 44 10 54 -6 6 -10 8 -11 6z"/>
<path d="M3842 2285 c-17 -19 -1 -19 24 0 14 11 15 14 4 14 -8 0 -21 -6 -28
-14z"/>
<path d="M4868 2283 c6 -2 18 -2 25 0 6 3 1 5 -13 5 -14 0 -19 -2 -12 -5z"/>
<path d="M4165 2210 c-3 -5 -2 -10 4 -10 5 0 18 -3 28 -7 17 -6 17 -6 1 10
-19 20 -24 21 -33 7z"/>
<path d="M3750 1952 c0 -12 58 -27 67 -18 9 9 0 15 -35 22 -20 4 -32 2 -32 -4z"/>
<path d="M0 1934 c0 -8 5 -12 10 -9 6 4 8 11 5 16 -9 14 -15 11 -15 -7z"/>
<path d="M320 1849 c0 -5 5 -7 10 -4 6 3 10 8 10 11 0 2 -4 4 -10 4 -5 0 -10
-5 -10 -11z"/>
<path d="M4390 1790 c19 -13 30 -13 30 0 0 6 -10 10 -22 10 -19 0 -20 -2 -8
-10z"/>
<path d="M4631 1194 c0 -11 3 -14 6 -6 3 7 2 16 -1 19 -3 4 -6 -2 -5 -13z"/>
<path d="M4785 1010 c-3 -5 -1 -10 4 -10 6 0 11 5 11 10 0 6 -2 10 -4 10 -3 0
-8 -4 -11 -10z"/>
<path d="M4947 793 c-18 -29 29 -58 58 -36 20 15 20 15 0 13 -35 -4 -43 0 -47
18 -3 12 -6 14 -11 5z"/>
<path d="M4940 719 c0 -33 31 -32 57 2 10 13 7 15 -22 15 -26 0 -35 -4 -35
-17z"/>
<path d="M4910 669 c0 -5 5 -7 10 -4 6 3 10 8 10 11 0 2 -4 4 -10 4 -5 0 -10
-5 -10 -11z"/>
<path d="M5040 630 c0 -5 5 -10 11 -10 5 0 7 5 4 10 -3 6 -8 10 -11 10 -2 0
-4 -4 -4 -10z"/>
<path d="M5387 619 c4 -13 8 -18 11 -10 2 7 -1 18 -6 23 -8 8 -9 4 -5 -13z"/>
<path d="M4860 620 c0 -5 5 -10 10 -10 6 0 10 5 10 10 0 6 -4 10 -10 10 -5 0
-10 -4 -10 -10z"/>
<path d="M5063 603 c-18 -6 -16 -33 1 -33 8 0 17 4 20 8 7 12 -7 30 -21 25z"/>
<path d="M1758 543 c7 -3 16 -2 19 1 4 3 -2 6 -13 5 -11 0 -14 -3 -6 -6z"/>
<path d="M1868 503 c7 -3 16 -2 19 1 4 3 -2 6 -13 5 -11 0 -14 -3 -6 -6z"/>
<path d="M1908 483 c7 -3 16 -2 19 1 4 3 -2 6 -13 5 -11 0 -14 -3 -6 -6z"/>
<path d="M5443 435 c0 -22 2 -30 4 -17 2 12 2 30 0 40 -3 9 -5 -1 -4 -23z"/>
<path d="M4865 261 c-3 -5 -1 -12 5 -16 5 -3 10 1 10 9 0 18 -6 21 -15 7z"/>
<path d="M5030 261 c0 -6 5 -13 10 -16 6 -3 10 1 10 9 0 9 -4 16 -10 16 -5 0
-10 -4 -10 -9z"/>
<path d="M5180 241 c0 -6 5 -13 10 -16 6 -3 10 1 10 9 0 9 -4 16 -10 16 -5 0
-10 -4 -10 -9z"/>
<path d="M1077 225 c38 -26 130 -54 118 -35 -3 5 -16 10 -28 10 -13 0 -40 9
-62 20 -47 24 -58 26 -28 5z"/>
<path d="M4791 214 c0 -11 3 -14 6 -6 3 7 2 16 -1 19 -3 4 -6 -2 -5 -13z"/>
<path d="M4820 189 c0 -5 5 -7 10 -4 6 3 10 8 10 11 0 2 -4 4 -10 4 -5 0 -10
-5 -10 -11z"/>
<path d="M1835 150 c3 -5 8 -10 11 -10 2 0 4 5 4 10 0 6 -5 10 -11 10 -5 0 -7
-4 -4 -10z"/>
<path d="M411 74 c0 -11 3 -14 6 -6 3 7 2 16 -1 19 -3 4 -6 -2 -5 -13z"/>
<path d="M185 44 c-3 -20 -4 -39 -1 -42 3 -3 6 4 6 16 0 12 5 22 10 22 12 0
13 27 1 34 -5 3 -12 -10 -16 -30z"/>
<path d="M1040 70 c0 -5 -12 -13 -26 -16 l-26 -7 31 -19 c19 -12 42 -18 56
-16 14 3 25 1 25 -3 0 -5 8 -9 18 -9 14 0 13 4 -7 19 -17 13 -20 20 -11 23 9
3 10 9 5 18 -7 11 -10 10 -19 -2 -6 -8 -20 -18 -30 -22 -19 -6 -19 -6 -3 12
21 23 22 32 2 32 -8 0 -15 -4 -15 -10z"/>
<path d="M225 39 c-4 -6 -5 -12 -2 -15 2 -3 7 2 10 11 7 17 1 20 -8 4z"/>
<path d="M107 26 c-4 -10 -5 -21 -2 -24 9 -9 17 6 13 25 -3 17 -4 17 -11 -1z"/>
<path d="M140 15 c0 -8 4 -15 10 -15 5 0 7 7 4 15 -4 8 -8 15 -10 15 -2 0 -4
-7 -4 -15z"/>
</g>
</svg>
